<?xml version="1.0" encoding="utf-8"?>
<!-- Generator: Adobe Illustrator 19.1.0, SVG Export Plug-In . SVG Version: 6.00 Build 0)  -->
<svg version="1.1" id="Layer_1" xmlns="http://www.w3.org/2000/svg" xmlns:xlink="http://www.w3.org/1999/xlink" x="0px" y="0px"
	 viewBox="0 0 300 254.2" style="enable-background:new 0 0 300 254.2;" xml:space="preserve">
<style type="text/css">
	.st0{fill:#42AA19;}
	.st1{fill:#BD202E;}
	.st2{fill:#F05A29;}
	.st3{fill:#F7EA31;}
	.st4{fill:#016938;}
	.st5{fill:#A0AE39;}
	.st6{fill:#ECD01B;}
	.st7{fill:#FFF4B7;}
	.st8{fill:#FFFFFF;}
	.st9{fill:#E199C1;}
	.st10{fill:#492F8D;}
	.st11{fill:#C82127;}
</style>
<path class="st0" d="M225,0H75L0,127.1l75,127.1h150l75-127.1L225,0z M181.5,192.6c-27.6,19.8-26.3,11.4-27,15.6s0.5,8.8-4.6,8.8
	c-5,0-3.9-4.6-4.6-8.8s0.7,4.2-27-15.6c-27.6-19.8-21.5-66-21.5-66h106C203,126.6,209.2,172.8,181.5,192.6z M202.2,119H150H97.8
	c0,0-5.2-2.3-5-11.9s8.6-33.3,51-40.5l2.3-27c0,0,0.5-2.8,4.9-2.4c4.4,0.3,5,2,5,3.1s0.2,26.3,0.2,26.3c42.4,7.2,50.9,30.9,51,40.5
	S202.2,119,202.2,119z"/>
</svg>
