<?xml version="1.0" encoding="utf-8"?>
<!-- Generator: Adobe Illustrator 19.1.0, SVG Export Plug-In . SVG Version: 6.00 Build 0)  -->
<svg version="1.1" id="Layer_1" xmlns="http://www.w3.org/2000/svg" xmlns:xlink="http://www.w3.org/1999/xlink" x="0px" y="0px"
	 viewBox="0 0 300 254.2" style="enable-background:new 0 0 300 254.2;" xml:space="preserve">
<style type="text/css">
	.st0{fill:#42AA19;}
	.st1{fill:#BD202E;}
	.st2{fill:#F05A29;}
	.st3{fill:#F7EA31;}
	.st4{fill:#016938;}
	.st5{fill:#A0AE39;}
	.st6{fill:#ECD01B;}
	.st7{fill:#FFF4B7;}
	.st8{fill:#FFFFFF;}
	.st9{fill:#E199C1;}
	.st10{fill:#492F8D;}
	.st11{fill:#C82127;}
</style>
<path class="st0" d="M225,0H75L0,127.1l75,127.1h150l75-127.1L225,0z M177.6,203.1c-0.7,2.3-2.1,4.5-4.1,6.4h-47.1
	c-2-1.9-3.4-4.1-4.1-6.4c-36-36.5-61.8-66.3-59.2-68.9c2.5-2.5,29.7,20.4,64,53.4c-15.8-53.1-25.4-95.8-21.7-96.9
	c3.7-1.1,19.4,39.8,35.7,92.7c0.6-0.1,1.1-0.2,1.7-0.3c-0.2-9.9-0.3-20.4-0.3-31.3c0-59.1,3.3-107,7.4-107c4.1,0,7.4,47.9,7.4,107
	c0,10.9-0.1,21.4-0.3,31.3c0.6,0.1,1.1,0.2,1.7,0.3c16.3-52.9,32-93.8,35.7-92.7c3.7,1.1-5.9,43.8-21.7,96.9
	c34.3-32.9,61.6-55.9,64-53.4C239.4,136.8,213.7,166.6,177.6,203.1z"/>
</svg>
