<?xml version="1.0" encoding="utf-8"?>
<!-- Generator: Adobe Illustrator 19.1.0, SVG Export Plug-In . SVG Version: 6.00 Build 0)  -->
<svg version="1.1" id="Layer_1" xmlns="http://www.w3.org/2000/svg" xmlns:xlink="http://www.w3.org/1999/xlink" x="0px" y="0px"
	 viewBox="0 0 300 254.2" style="enable-background:new 0 0 300 254.2;" xml:space="preserve">
<style type="text/css">
	.st0{fill:#42AA19;}
	.st1{fill:#BD202E;}
	.st2{fill:#F05A29;}
	.st3{fill:#F7EA31;}
	.st4{fill:#016938;}
	.st5{fill:#A0AE39;}
	.st6{fill:#ECD01B;}
	.st7{fill:#FFF4B7;}
	.st8{fill:#FFFFFF;}
	.st9{fill:#E199C1;}
	.st10{fill:#492F8D;}
	.st11{fill:#C82127;}
</style>
<g>
	<path class="st0" d="M148.2,157.3c-1.5-0.9-3.6,0.2-4.3,1.5c-0.7,1.3,0.3,2,0.3,2s1.1,0.4,1.7-0.7c0.7-1.1-0.1-1.6-0.1-1.6
		c0.7-0.8,5.1-1.5,1.6,4.7c-3.5,6.2-6.7,11.7-7,15.4c-0.4,3.7,5.2,7,6.9,4c1.7-3,0.7-3.5,0.4-3.8c-0.4-0.3-1.6-0.6-2.2,0.4
		c-0.6,1.1,0.3,1.8,0.3,1.8c-0.5,1.8-1.5,1.5-1.5,1.5s-4.3-2,1.6-12.3C151.7,160,149.7,158.1,148.2,157.3z"/>
	<path class="st0" d="M118.1,154.3c-5.9,10.3-9.9,7.5-9.9,7.5s-0.8-0.7,0.5-2c0,0,1.1,0.4,1.7-0.7c0.6-1.1-0.3-2-0.7-2.1
		c-0.4-0.2-1.3-0.8-3.1,2.2c-1.7,3,3.9,6.2,6.9,4s6.2-7.7,9.8-13.8c3.6-6.1,5.2-1.9,4.8-1c0,0-0.7-0.4-1.4,0.7
		c-0.7,1.1,0.3,1.8,0.3,1.8s1.1,0.5,1.9-0.7c0.7-1.3,0.6-3.6-0.9-4.5C126.7,144.9,124.1,144.1,118.1,154.3z"/>
	<path class="st0" d="M225,0H75L0,127.1l75,127.1h150l75-127.1L225,0z M218.1,28.4c-1.4,1.5-1.6,2.8-1.6,2.8l-0.3-0.2
		c0.1-0.8,0.2-2.2,0.3-3.5L218.1,28.4z M215.5,31.8l-1.9-1.1c0.5-1.8,1.3-4.5,2.1-6.9l0.7,0.4C215.8,26.1,215.5,31.8,215.5,31.8z
		 M204.9,20.8l1.6,0.9c-1.1,0.8-2.2,1.6-2.9,2l-0.3-0.2C203.3,23.6,204.4,22.8,204.9,20.8z M209.4,20.1l0.7,0.4
		c-1.7,1.9-3.6,3.9-4.9,5.2l-1.9-1.1C203.3,24.7,208,21.6,209.4,20.1z M189.9,27.9c1,0.4,3.8,1.3,5,1.6s0.2,1.2,0.2,1.2l5.5,3.2
		l-1.8,2.7l-5.3-3.1c0,0-0.8,1.5-1.1,1.2c-0.4-0.3-1-2.4-3.7-3.9C186.1,29.3,188.9,27.5,189.9,27.9z M181.3,40.2
		c2.3-3.9,4.6-2.7,5.7-2.1c1.1,0.6,3,1.1,1.5,3.6l5,2.9l-1.8,2.8l-4.7-2.7c0,0-1.4,1.8-2.1,1.9C184.2,46.6,179,44.1,181.3,40.2z
		 M97.7,215.8c1.7-2.6,7.7-11.7,11.1-18.2c3.3-6.3,4.7-16.7,5.1-20.7c1.7,1.5,4.9,4.2,6.7,5.2c1.8,1,5.7,2.5,7.9,3.2
		c-3.2,2.3-11.6,8.8-15.4,14.7c-4,6.2-8.9,15.9-10.2,18.7L97.7,215.8z M185.7,135.2c-3.7,6.9-11.6,12.9-13.2,15.5
		c-1.6,2.5-1.9,4.8-1.9,4.8s-6.1-10.4-15.7,9.4c-9.6,19.8,7.1,18.2,3.7,20.5c-3.4,2.3-3.9,4.9-4.5,11.6c-0.6,6.7-5,12.7-5,12.7
		c-13.3,22.1-36,14.8-45.2,10.5c0.1-0.3,5.9-12.2,10.5-19.3c4.5-7.1,16.1-15.1,16.2-15.2c0.2-0.2,0.4-0.5,0.3-0.8
		c0-0.3-0.3-0.6-0.5-0.6c-0.1,0-6.7-2.2-9.1-3.6c-2.4-1.4-7.6-6-7.6-6.1c-0.2-0.2-0.5-0.3-0.8-0.1c-0.3,0.1-0.5,0.4-0.5,0.7
		c0,0.1-1.2,14.2-5.1,21.7c-3.9,7.5-11.3,18.5-11.5,18.8c-8.3-5.9-26-21.8-13.5-44.4c0,0,3-6.8,8.5-10.7s7.5-5.6,7.8-9.7
		c0.3-4.1,7.2,11.2,19.6-7.1c12.4-18.2,0.3-18.3,0.3-18.3s1.8-1.4,3.2-4c1.4-2.6,2.7-12.5,6.8-19.2c3.6-5.9,14.8-15.7,33.5-8.4
		l-29.6,46.4l18.4,10.6l25.4-48.8C191.9,114.6,189,129.1,185.7,135.2z M199.1,54.7l-48.9,93.9l-15.5-9l56.9-89.3l-0.6-0.6l14.5-21.7
		l-0.9-0.5c1.7-1.7,6-6,8.3-9.2l3.4,2c-1.7,3.6-3.2,9.5-3.8,11.8l-0.9-0.5l-11.6,23.4L199.1,54.7z M214.3,53.9c-1-0.4-3.8-1.3-5-1.6
		c-1.2-0.3-0.2-1.2-0.2-1.2l-5-2.9l1.5-2.9l5.1,3c0,0,0.8-1.5,1.1-1.2c0.4,0.3,1,2.4,3.7,3.9C218.1,52.6,215.3,54.4,214.3,53.9z
		 M221.3,41.6c-2.3,3.9-4.6,2.7-5.7,2.1c-1.1-0.6-3-1.1-1.5-3.6l-4.7-2.7l1.5-3l4.7,2.7c0,0,1.4-1.8,2.1-1.9
		C218.4,35.2,223.7,37.7,221.3,41.6z"/>
</g>
</svg>
