<?xml version="1.0" encoding="utf-8"?>
<!-- Generator: Adobe Illustrator 19.1.0, SVG Export Plug-In . SVG Version: 6.00 Build 0)  -->
<svg version="1.1" id="Layer_1" xmlns="http://www.w3.org/2000/svg" xmlns:xlink="http://www.w3.org/1999/xlink" x="0px" y="0px"
	 viewBox="0 0 300 254.2" style="enable-background:new 0 0 300 254.2;" xml:space="preserve">
<style type="text/css">
	.st0{fill:#42AA19;}
	.st1{fill:#BD202E;}
	.st2{fill:#F05A29;}
	.st3{fill:#F7EA31;}
	.st4{fill:#016938;}
	.st5{fill:#A0AE39;}
	.st6{fill:#ECD01B;}
	.st7{fill:#FFF4B7;}
	.st8{fill:#FFFFFF;}
	.st9{fill:#E199C1;}
	.st10{fill:#492F8D;}
	.st11{fill:#C82127;}
</style>
<g>
	<path class="st0" d="M142.7,112.9c0,34.4,4.7,55.2,6.6,62h1.5c1.9-6.8,6.6-27.6,6.6-62c0-42.8-7.3-64.5-7.3-64.5
		S142.7,70.1,142.7,112.9z"/>
	<path class="st0" d="M225,0H75L0,127.1l75,127.1h150l75-127.1L225,0z M190.1,150.5l-0.3,3.5l-24.2,22.8c-4.3,4.8-8.3,8.4-11.1,10.8
		v39.6h-8.9v-39.6c-2.9-2.3-6.9-6-11.1-10.8l-24.2-22.8l-0.3-3.5h6.7l-14.9-25.1l8.3-1.9l-6.4-28.6l7.3,3.2l-0.6-25.8l1.6-1.3
		l6.4,2.9l3.2-22.3l9.5,2.4c0.9-1.2,1.8-2.3,2.7-3.3c3.6-5.2,16.4-23.6,16.4-23.6l16.4,23.6c0.9,1,1.8,2.2,2.7,3.3l9.5-2.4l3.2,22.3
		l6.4-2.9l1.6,1.3L189.1,98l7.3-3.2l-6.4,28.6l8.3,1.9l-14.9,25.1H190.1z"/>
</g>
</svg>
