<?xml version="1.0" encoding="utf-8"?>
<!-- Generator: Adobe Illustrator 19.1.0, SVG Export Plug-In . SVG Version: 6.00 Build 0)  -->
<svg version="1.1" id="Layer_1" xmlns="http://www.w3.org/2000/svg" xmlns:xlink="http://www.w3.org/1999/xlink" x="0px" y="0px"
	 viewBox="0 0 300 254.2" style="enable-background:new 0 0 300 254.2;" xml:space="preserve">
<style type="text/css">
	.st0{fill:#42AA19;}
	.st1{fill:#BD202E;}
	.st2{fill:#F05A29;}
	.st3{fill:#F7EA31;}
	.st4{fill:#016938;}
	.st5{fill:#A0AE39;}
	.st6{fill:#ECD01B;}
	.st7{fill:#FFF4B7;}
	.st8{fill:#FFFFFF;}
	.st9{fill:#E199C1;}
	.st10{fill:#492F8D;}
	.st11{fill:#C82127;}
</style>
<g>
	<path class="st0" d="M108.6,171.2c-0.5,0.2-1,0.4-1.6,0.5c-0.5,0.8-1.5,1.8-3.5,2.1v4.7l2.8,7.8c0,0,0.3,1.4,0.5,1.5
		c0.3,0,0.4-12,1.6-14.3C109,172.4,108.9,171.7,108.6,171.2z"/>
	<path class="st0" d="M116,151.5c-0.7,1.6-1.9,3.1-3.2,4.6c1.1-1.1,2.1-2.3,3.1-3.5C115.9,152,116,151.5,116,151.5z"/>
	<path class="st0" d="M222.6,123.6c1.5,0.9,12,6.5,15.2,8.8c3.2,2.2,8.8,7.1,10.3,7.2c1.4,0.1,2.5-0.1,0.8-2
		c-1.7-1.9-4.7-6.4-12.1-10.6c-7.4-4.2-12.2-6.7-16.7-8.4c0,0-2.4-0.8-1.3,0.9C219.9,121,221.1,122.7,222.6,123.6z"/>
	<path class="st0" d="M101.8,172.3c-0.4,0-0.8,0-1.2,0c-2.6,6.5-10.3,27.8-5.2,36.1c0,0,1.2,1.2,1.2-1.2c0-2.4,1.5-15.5,3.6-19.8
		c0,0,1.1-6.8,1.8-8.6C102,178.7,102.3,175.8,101.8,172.3z"/>
	<path class="st0" d="M102.6,179.1c-0.7,0.1-1.1,5.9-1.3,8.2c-0.1,2.4,5.5,9.2,5.5,9.2s-0.1-1.7-0.3-3.9
		C106.3,190.4,103.4,179,102.6,179.1z"/>
	<path class="st0" d="M115,170.9c-0.5,0.2,0,2.3-1,2.5c-1,0.2-4,0.8-4,0.8s-2,7.2-1.6,10.9c0.4,3.6,0.7,8,1.6,8.1
		c0.8,0.1,7.1-3.4,7.2-4.3c0.1-0.9,2.1-17.3,1.8-17.6C118.6,171,115.5,170.7,115,170.9z"/>
	<path class="st0" d="M162.3,106c-0.2,0.8-0.3,1.2-0.3,1.2s-0.1,0.8-2.5-1.2c1.4,1.1,2.5,2.3,3.4,3.7l0,0c0,0,0.1,0,0.3-0.1
		C162.9,108.4,162.6,107.3,162.3,106L162.3,106z"/>
	<path class="st0" d="M134.9,141.8c-0.6,0.3-1.1,0.7-1.7,1.1c0,0,0.1,0,0.1-0.1c0.5-0.2,1.1,0.1,1.6,0.3c0.1-0.3,0.2-0.5,0.3-0.8
		l0,0C135.2,142.2,135,142,134.9,141.8z"/>
	<path class="st0" d="M133.2,142.9c-2,1.3-4,2.9-5.8,4.3l0.5,8.2l6.4,14.4c0,0-0.8-9.2-0.9-12.4
		C133.2,154.3,131.8,144.1,133.2,142.9z"/>
	<path class="st0" d="M133.2,145.3c-0.3,0.7,0,2.7,0.4,4.8c0.1-1.9,0.5-3.7,0.9-5.4C133.9,144.4,133.5,144.5,133.2,145.3z"/>
	<path class="st0" d="M129.3,131.5c-0.7,0.1-1.7,0.2-2.8,0.2l0.5,9.2c2.2-1.7,4.2-3.3,5.4-4.2C131.4,135,130.3,133.1,129.3,131.5z"
		/>
	<path class="st0" d="M129.3,123c0-0.3-0.1-0.6-0.1-0.8c-0.3,0-0.6-0.1-1-0.3l0,0C128.5,122.3,128.9,122.7,129.3,123z"/>
	<path class="st0" d="M107.5,161c1.1-0.8,2.5-2.1,4-3.5C110.1,158.9,108.7,160.1,107.5,161z"/>
	<path class="st0" d="M119.7,145.3h2.4l-0.2-13.7c-0.8,0-1.6-0.1-2.2-0.1V145.3z"/>
	<path class="st0" d="M124.6,126c-0.2-3.3-0.4-5.7-0.4-5.7l-1.2-0.7c0.1,1.9,0.1,4.1,0.1,6.4C123.7,126,124.2,126,124.6,126z"/>
	<path class="st0" d="M129.5,124.9C129.5,124.9,129.5,124.9,129.5,124.9c-0.1,0.2,0,0.6,0.2,1C129.6,125.5,129.6,125.2,129.5,124.9z
		"/>
	<path class="st0" d="M123.1,144.2c0.7-0.7,1.6-1.4,2.4-2.1c-0.1-3.2-0.3-6.9-0.5-10.4c-0.6,0-1.2,0-1.8,0
		C123.2,136.3,123.2,140.9,123.1,144.2z"/>
	<path class="st0" d="M125.6,149.3c0-0.1,0-0.4,0.1-0.7c-0.3,0.2-0.6,0.5-0.8,0.7H125.6z"/>
	<path class="st0" d="M113.1,171.8c0.2-0.3,0.5-2.7,1-5.8c-0.2,0.3-0.3,0.6-0.5,0.9c-0.9,1.5-1.9,2.5-3,3.3
		c-0.2,1.1-0.7,2.1-0.7,2.1S112.6,172.7,113.1,171.8z"/>
	<path class="st0" d="M117.1,145.3c0.3-3.5,1-9.2,1.6-13.9c-0.1,0-0.2,0-0.2,0c-0.5,0.3-1.8,0.6-3.7,0.8c-0.5,1.7-0.9,3.3-1.2,4.6
		c-1.3,6.2-7,23.6-7,23.6C111.7,157.6,117.1,145.3,117.1,145.3z"/>
	<path class="st0" d="M119.7,124v2.7c0.6-0.2,1.3-0.4,2.1-0.5l-0.1-7.7l-2-2.2c0,0-1.4,4.3-2.9,9.2c1.2,0.5,2.1,0.9,2.5,1.1
		C119.5,125,119.7,124,119.7,124z"/>
	<path class="st0" d="M118.6,149.3c1.1-1.4,1.8-2.3,1.8-2.3c0,0,0,0,0.1-0.1H119C118.9,147.5,118.8,148.3,118.6,149.3z"/>
	<path class="st0" d="M123.8,151.7c0,0,1,13.1,1.1,14.9c0.1,1.8-0.9,2.1-1.1,0.6c-0.1-1-1.1-9.8-1.7-15.5c-2.9,3.1-3.8,5.6-5.5,9.1
		c-0.7,4.4-1.3,8.2-1.1,8.3c0.3,0.2,9.8,1,10.5,0.3c0.7-0.7-0.5-17.9-0.5-17.9L123.8,151.7z"/>
	<path class="st0" d="M165.9,115.3c0.8,2.2,1.8,4.2,2.4,5.7c0.4,1,1.3,2.3,2.4,3.7c1.4,0.4,2.9,1,4.5,1.7c-1.9-4-4.7-8.7-7.1-12.4
		C167.1,114.6,166.3,115.1,165.9,115.3z"/>
	<path class="st0" d="M167.3,124.2C167.4,124.2,167.4,124.2,167.3,124.2c0.7,0,1.4,0.1,2.1,0.2c-0.9-1.5-1.8-3.1-2.7-4.9
		C167.1,121.2,167.2,122.8,167.3,124.2z"/>
	<path class="st0" d="M164.1,109.2c0.2-0.1,0.5-0.2,0.8-0.3c-0.6-1-1-1.5-1-1.5C163.9,107.9,163.9,108.6,164.1,109.2z"/>
	<path class="st0" d="M168.2,107.3c0.3-0.1,0.6-0.3,0.9-0.4c-0.6-0.7-1-1.1-1-1.1s-2.6-2.4-0.7,0.3
		C167.6,106.4,167.9,106.8,168.2,107.3z"/>
	<path class="st0" d="M173.6,103.9l-5.3-4.3l-1.5,0.8l5.2,4.8C172.6,104.7,173.1,104.3,173.6,103.9z"/>
	<path class="st0" d="M183.5,130.5c0,0-2-0.6-6.3-6.1c-2.6-3.3-5.7-8-7.7-11.3c-0.1,0-0.1,0.1-0.2,0.1c2.6,4.9,7,12.9,7.6,13.9
		c0,0,0,0,0,0c1.8,0.9,3.6,1.9,5.5,2.9C183.1,130.3,183.5,130.5,183.5,130.5z"/>
	<path class="st0" d="M225,0H75L0,127.1l75,127.1h150l75-127.1L225,0z M215.9,160.2c3.2,2.8,7.5,6.4,12.6,11.5
		c5.1,5.1,11.4,7.8,12.9,8.4s4.3,3.1,4,3.9c-0.3,0.8-2.6-0.3-2.6-0.3s0.4,2.8-0.7,2.8c-1.1,0.1-1-2.9-1-2.9s-22.7-12-27.3-17.9
		s-7.4-5.1-7.8-5.6c-0.3-0.5-1.6-3.3-1.6-3.3c-0.6-1.5-2-3.5-3.8-5.7c-7.5-3.1-13.3-6.7-15.1-9.6c-2.1-3.3-6.1-5.6-10.3-9.8
		c-4.4-1.9-8-3.3-8-3.3c0,0.5,0,0.7,0,0.7c5.3,2.3,10.9,6.9,15.5,15.8c12.2,23.6,10.3,58.8-8.5,64.6c-11.8,3.6-23.8-9.7-31.8-25.7
		c-0.6,1.2-1.2,2.3-1.9,3.5c-8.8,14.2-36.8,34-41.4,33.6c-3.6-0.3-5.8-5.4-6.7-13.7c0,0.1,2.6,12.9,6.8,12.3
		c4.2-0.5,19.5-11.3,24.8-15.9c5.3-4.6,13-12.8,16.9-18.7c0.4-0.6,0.8-1.3,1.1-1.9c-3.9-8-6.8-16.6-8-24c-0.5,0.9-0.2,1.9-0.2,1.9
		c1.1,6.1,1.6,12.3,1.1,12.6c-0.5,0.3-1-1.1-1-1.1c-1.3-1.6-6.9-15.5-6.9-15.5c-0.3,1.1,0,14.8,0,14.8s2.8,12.1,2.8,14.7
		c0,2.6-1.1,0.6-1.1,0.6c-0.1-1.6-3.5-16.8-4.1-16.3c-0.6,0.5-4.3,0.4-4.3,0.4c-0.2,2.7-1.8,17.2-1.3,19.1c0.4,1.9,3.3,8.5,2.4,8
		c-0.9-0.4-3.9-7.5-3.9-7.5c-2.8,2.3-7.4,3-8.4,4.7c-1,1.7-1,2.6-1,2.6c-4.8,0.3-7.4-9.4-7.4-9.4s-2.9,13.7-3,18.6
		c-0.1,4.9-4.5,2.3-5.4,0c-0.3-2.4-0.4-5-0.4-7.9c-0.1-7.9,2.7-16.4,6.8-27.1c-0.4,0-0.7,0.1-0.9,0.2c-0.1,0-0.2,0.1-0.3,0.1
		c-3.2,0.9-15.9-0.5-16.5-1.9c-0.6-1.5,1.9-6.2,1.7-4.9c-0.2,1.3,1.1,2.7,1.1,2.7c5.7,4,13.8-0.6,13.8-0.6c0.5-1.4,2.5-2.9,4.5-4.1
		c1.7-4.3,3.5-9,5.4-14.1c2.4-6.5,4.2-12.3,5.6-17.4c-1.1,0.1-2.3,0.2-3.6,0.2c-4.8,0.1-5.9-2.6-5.9-2.6c-2.2,0.1-8.3,0-8.3,0
		c-0.1,1.4-1.7,1.5-1.7,1.5c-0.9-0.1-0.5-1.9-0.5-1.9c-2,0.3-2.2-0.7-2.2-0.7c-0.2-1.3,2.4-1.8,2.4-1.8c-0.6-0.7-0.3-2.2,0.3-2.3
		s1.1,2.3,1.1,2.3h9.2c2.1-2.9,5.3-3.1,5.3-3.1c1.9-0.1,4.1,0.4,5.9,0.9c1.9-8.1,2.4-12.7,2.4-12.7l0,0c-0.2-0.4-0.4-0.7-0.4-0.8
		c-0.2-1.6,0.4-4.7,3.8-6.9c-0.9-2.3-1.6-4.4-1.8-6.3c-0.1,0-0.1,0-0.2,0c-2,0.1-6-1.3-9.5-1.3c-3.5,0.1-6.1-0.7-8.1-1.5
		c-2-0.7-1.8-5.3-1.8-5.3c-1.5-0.3-3.8-2.8-3.8-2.8c-2.5-0.1-4-0.5-4-0.5s-0.9,1.7-1.6,1.2c-0.7-0.5,0.8-2.6,0.8-2.6s-2-0.9-1.6-1.4
		s2.2,0,2.2,0c-0.4-1.6,0.6-2.7,1-2.2c0.4,0.5,0.5,2.2,0.5,2.2c1.1,0.1,4.2,1.8,4.2,1.8c1.3-0.5,6,0.5,7,0.9c1,0.3,0,2.7,0,2.7
		c0.9,0,2.6,0.6,2.6,0.6c1.3,1.3,4.5,2.9,4.5,2.9c3.9-1.6,8.8-1.1,8.8-1.1l0,0c0.6-0.9,1.2-1.6,2-2.4c-2.3-1-1.9-2-1.9-2
		c-2.3,3.3-4.4,3-4.4,3c-14.2-2.2-9.9-14.6-9.9-14.6s7.1-4.8,6.5-7.1c-0.5-2.3,1-4.6,1-4.6c-3.9-1-8.2-1.1-11.5-0.9
		c-3.4,0.3-1.3-0.7-3-0.7c-0.1,0-0.2,0-0.3,0c-1.4-0.1-1.9-1.1-1.9-1.1c-2.2-0.3-3.3-0.9-3.3-0.9s-13.1-5.3-17.1-6
		c-4-0.7-4.1-1.5-4.1-1.5s-1-3.4,5.3-0.9c6.3,2.4,14.7,5.6,16.7,6.1c2,0.5,3.2,2,3.2,2c2.7-0.5,2.8,0.7,2.8,0.7
		c1.3-0.3,7.6-0.3,9.5-0.3c1.9,0,4.7,1.2,4.7,1.2s0.4-2,2-3.6c1.6-1.6,3.3-2.2,3.3-2.2c-0.7-3.3,0.5-9.2,0.7-11.3
		c0.1-2-0.6-3.9-0.6-3.9s-1.5-2.6-1.1-4.5c0.3-1.9-1.7-10.5-2.2-12.6c-0.5-2.2,1.7-2.9,2.4-1.4c0.7,1.5,2.5,13.4,2.6,14.5
		c0.1,1.1,0,4.8,0,4.8c0.6,0.5,0.8,1.1,1.2,1.8c0.4,0.7,0.8,0.9,0.1,2.1c-0.7,1.1-1.6,11.7,0,11.9s3.8,1.4,3.8,1.4
		c3.8-2,10.4-5.9,10.4-5.9c11,4,9.5,15.7,8.5,17.3c-1.1,1.6-7.2,2.9-7.2,2.9c-0.2,0.1-0.6,0.3-1.1,0.7c0.5,0,0.9,0.1,1.2,0.4
		c2.6,2.7,4.9,6.6,4.9,6.6l-0.1,0c0.9,0,1.8,0,2.6,0.1c0,0,0,0,0,0c0,0,4.7-6.1,5.9-12.1h0.9c0,0,3-13.4,4.6-15.6c0,0,1,0.3,1.2-1.9
		c0.2-2.2,4.9-10.3,5.7-11.1c0.8-0.8,0-5.7,0-5.7s-1-1.8-0.5-2c0.5-0.3,1.8,0.8,1.8,0.8s0.6-1.4,2-1.2c1.4,0.2,0,1.8,0,1.8
		s2.5-0.3,2.7,0.4c0.2,0.7-1.8,1.3-1.8,1.3s-1.1,1.2-0.9,3.3c0.2,2.1-0.7,2.4-0.7,2.4s-4,6-3.6,11.6s-0.7,13.2-6.3,16.7v1.2l0.5,0.5
		c0,0-2.7,9.5-5.3,12.1l0,0c0.6,0.4,1.2,0.9,1.9,1.4c0.9,0.7,1.8,2.2,2.6,4.1c0,0,0.7-0.2,5.2,1.5c0.7,0.2,1.1,0.8,1.4,1.6l0,0
		c0,0,4.4,1.7,6.9,4.2c1.4,1.4,3.8,2.8,7.1,4.4c0.6-0.6,1.1-1,1.1-1c3.6-7,13.7-16.2,13.7-16.2c0.4-6.8,8.1-14.6,8.1-14.6l1.7-0.1
		c0.4-1.4,0.8-2.6,0.8-2.6l1.8-0.2l0.2-1.6l1.1-0.1l0-1.3l3.3-4.9c0,0-0.4-2.6,0.4-2.5c0.8,0.1,1.5,2.5,1.5,2.5s1.6-2.4,2.1-1.3
		c0.4,1-0.9,2.2-0.9,2.2s2.5-0.3,2.4,0.9c-0.1,1.1-2.7,0.5-2.7,0.5c-0.1,1.2-5.6,7-5.6,7l-1.3,0.3l0,1c-0.2,1-1.1,2-1.1,2l1.3,1.7
		c-1.1,9.7-7.8,14.6-8.4,15.6c-0.6,1-0.1,0.9-1,2.9c-0.8,1.8-10,9.5-13.7,12.2c19.4,8.1,54.5,18.2,63.1,29.2
		c10,12.8,14.6,22.4-5.6,25.6c-8.5,1.4-18.6,0-27.7-2.5C214.4,158,215.9,160.2,215.9,160.2z"/>
	<path class="st0" d="M176.5,101.4c-3.9-1.8-7.6-3.5-7.6-3.5s2.7,2.1,6.1,4.8C175.5,102.2,176,101.8,176.5,101.4z"/>
	<path class="st0" d="M252.2,150.1c1.9-4.2-2.1-9.8-2.1-9.8s-1.6,1.8-5.7-1.6c-4-3.4-11.2-8.4-12.3-8.7c-1.1-0.3,0.1,3,2,5.4
		c1.9,2.4,0.8,4.9,0,5.7c-0.8,0.8-3.7,0.2-3.9,0c-0.2-0.2-2.8,1.8-8.8,2.2c0,0,2.4,6.5,3.1,7.9s-1.2,0.9-1.8,0
		c-0.6-0.9-2.7-6.6-3.4-7.2c-0.7-0.5-12.2-10.5-13.9-11.1c0,0-2.5,1.5-2.3,2.4c0.2,0.9,8.7,13.5,9.6,14.9c0.9,1.4,2,3.2,1.1,3.2
		c-0.8,0-9.5-13.3-12.8-15.9c-3.2-2.6-9.9-8.3-9.9-8.3s-1.9-1.4-0.5,0.7c0.8,1.3,4.3,6.1,6.7,9.9c4.7,3.2,10,9.2,13.8,13.9
		c1.1,0.3,2.3,0.6,3.6,0.9c17.3,4.3,29.2,0.7,29.2,0.7S250.3,154.3,252.2,150.1z"/>
	<path class="st0" d="M205.8,129.2c0.5,0,1.5-1.6,0.4-2.5c-1.1-0.9-15-9.4-15.5-9.7s-2.2-1.2-3.2,0c0,0-1.6,0.8,0,2.4
		c1.6,1.6,12.4,12.4,12.9,13.1c0.5,0.7,2.4,1.3,3.8-0.6c0,0-0.8-1,0-1.9C204.9,129.1,205.3,129.2,205.8,129.2z"/>
	<path class="st0" d="M186.1,137.3c-2.2-1.4-4.9-2.8-7.5-4c0.2,0.4,0.4,0.7,0.4,0.7s1.6,0.9,3.6,2.6c2,1.6,4.9,6.2,4.9,5.7
		c-0.1-0.5-0.1-3.6-1.1-4.6C186.2,137.5,186.2,137.4,186.1,137.3z"/>
	<path class="st0" d="M189.2,139.6c-0.3,1.1-0.4,2.2-0.3,2.8c0.2,1.7,0.8,1.7,1.7,2.6c0.6,0.6,3.1,2.6,9.2,5
		C196.7,146.4,192.7,142.5,189.2,139.6z"/>
	<path class="st0" d="M188.8,122.1c-0.9-0.9-8.1-7.7-13.5-12.9c-0.4,0.3-0.9,0.7-1.5,1.1c3.8,4.1,8.3,8.9,8.3,8.9s17,15.5,17.5,14.6
		C200.1,133,190.3,123.5,188.8,122.1z"/>
	<path class="st0" d="M206.3,119.1c-1.8-1.1-4-2.4-4-2.4s-6.6-0.2-7.3-0.2c-0.7,0-2.2,0.3,0.7,1.8c2.8,1.4,11.3,6.7,11.8,7.6
		c0.5,0.8,0.5,1.5,2.3,1.6c1.8,0.1,3.9-0.9,3.5-2.1C212.9,124.2,208.2,120.3,206.3,119.1z"/>
	<path class="st0" d="M168.6,104.3c0.1,0.2,0.7,1,1.6,2c0.5-0.3,0.9-0.5,1.2-0.7c-1.3-1.2-2.2-2-2.4-2.2
		C168.1,102.7,168.6,104.3,168.6,104.3z"/>
	<path class="st0" d="M186.6,131.6c0.7,0,2.4,0.6,4.5,2.7c2.2,2.1-2.1-4.3-2.4-5.3c-0.3-1-0.7-2.4-4-5c-2-1.6-7.8-8.1-12-12.9
		c-0.5,0.3-1,0.7-1.5,1c2.7,4.3,5.7,9.3,6.4,10.2C178.7,123.6,186,131.6,186.6,131.6z"/>
	<path class="st0" d="M185,116.8l2.4-1.7l-9.9-8.1c-0.3,0.4-0.5,0.6-0.5,0.6c-0.2,0.3-0.5,0.6-1,1.1L185,116.8z"/>
	<path class="st0" d="M216.2,126.1c1.6,0.4,9.2,7.1,9.6,7.6c0.4,0.5-2-6.3-4.5-9.1c-2.5-2.8-2.8-2.5-2.8-2.5s-3.5,0.7-5.8,0.3
		c0,0,1.1,1.3,1.4,2.2C214.4,125.4,214.6,125.7,216.2,126.1z"/>
	<path class="st0" d="M211.9,121.4c1.1,0.3,5,0,5,0s1.9,0,0.6-1.8c-1.3-1.8-3.4-4.4-12.8-2.6C204.7,116.9,210.9,121,211.9,121.4z"/>
	<path class="st0" d="M208.9,115.3c0,0-22.9-8.9-23.8-9.7c-0.3-0.2-1.9-1.1-4.1-2.1c-0.8,0.5-1.7,1.3-2.4,2.1
		c4.8,3.9,9.7,7.8,10,8.2C189.3,114.7,197.8,115.9,208.9,115.3z"/>
	<path class="st0" d="M207.4,133c2.3,1.7,11.6,8.8,12.4,9c0.8,0.2,8.3-0.9,8.6-1.8s-2.1-4.5-5.2-7.2c-3.1-2.7-5.5-5.5-6.3-5.7
		c-0.9-0.2-2.8-0.2-4.2,1.6c-1.3,1.8-3.8,0-3.8,0s-0.9-0.4-2.2,1.1C206.8,129.9,205.1,131.3,207.4,133z"/>
	<path class="st0" d="M230.4,139.5c0.5,0.1,2.6,1.9,2.8,0.8c0.2-1.1,0.7-1.8-0.8-5.2c-1.5-3.4-2.8-4.5-3.1-6.5c0,0-4.3-2.6-5.5-3.2
		c-1.1-0.7,3,5.4,4.7,8.9C230.2,137.8,229.9,139.4,230.4,139.5z"/>
</g>
</svg>
