<?xml version="1.0" encoding="utf-8"?>
<!-- Generator: Adobe Illustrator 19.1.0, SVG Export Plug-In . SVG Version: 6.00 Build 0)  -->
<svg version="1.1" id="Layer_1" xmlns="http://www.w3.org/2000/svg" xmlns:xlink="http://www.w3.org/1999/xlink" x="0px" y="0px"
	 viewBox="0 0 300 254.2" style="enable-background:new 0 0 300 254.2;" xml:space="preserve">
<style type="text/css">
	.st0{fill:#42AA19;}
	.st1{fill:#BD202E;}
	.st2{fill:#F05A29;}
	.st3{fill:#F7EA31;}
	.st4{fill:#016938;}
	.st5{fill:#A0AE39;}
	.st6{fill:#ECD01B;}
	.st7{fill:#FFF4B7;}
	.st8{fill:#FFFFFF;}
	.st9{fill:#E199C1;}
	.st10{fill:#492F8D;}
	.st11{fill:#C82127;}
</style>
<path class="st0" d="M225,0H75L0,127.1l75,127.1h150l75-127.1L225,0z M228.3,155.4c1.1,1.9,0.5,4.2-1.4,5.3c-0.6,0.4-1.3,0.5-2,0.5
	c-1.3,0-2.6-0.7-3.4-1.9l-1.2-2c-3,1.3-6.3,2-9.7,2c-14,0-25.3-11.3-25.3-25.3c0-8.1,3.9-15.2,9.8-19.8l-34.9-59.5l26.9,118.2
	c0.3,0,0.5-0.1,0.8-0.1c14,0,25.3,11.3,25.3,25.3c0,10.3-6.2,19.2-15.1,23.1l0.3,1.3c0.5,2.1-0.8,4.2-2.9,4.7
	c-0.3,0.1-0.6,0.1-0.9,0.1c-1.8,0-3.4-1.2-3.8-3l-0.3-1.1c-0.9,0.1-1.7,0.3-2.7,0.3c-14,0-25.3-11.3-25.3-25.3
	c0-11,7.1-20.3,16.9-23.7L150,45.1l-29.4,129.2c9.8,3.5,16.9,12.8,16.9,23.7c0,14-11.3,25.3-25.3,25.3c-0.9,0-1.8-0.2-2.7-0.3
	l-0.3,1.1c-0.4,1.8-2,3-3.8,3c-0.3,0-0.6,0-0.9-0.1c-2.1-0.5-3.4-2.6-2.9-4.7l0.3-1.3c-8.9-3.9-15.1-12.8-15.1-23.1
	c0-14,11.3-25.3,25.3-25.3c0.3,0,0.5,0.1,0.8,0.1l26.9-118.2L105,114.2c5.9,4.6,9.8,11.7,9.8,19.8c0,14-11.3,25.3-25.3,25.3
	c-3.5,0-6.7-0.7-9.7-2l-1.2,2c-0.7,1.2-2,1.9-3.4,1.9c-0.7,0-1.3-0.2-2-0.5c-1.9-1.1-2.5-3.5-1.4-5.3l1.3-2.3
	c-5.4-4.6-9-11.5-9-19.2c0-14,11.3-25.3,25.3-25.3c3.1,0,6,0.6,8.7,1.6l47.7-81.5c0-0.1,0.1-0.1,0.1-0.1c0.1-0.2,0.3-0.4,0.5-0.5
	c0.2-0.2,0.4-0.4,0.6-0.5c0.2-0.1,0.4-0.2,0.6-0.3c0.3-0.1,0.5-0.2,0.8-0.3c0.2-0.1,0.5,0,0.7,0c0.3,0,0.5,0,0.8,0c0,0,0.1,0,0.1,0
	c0,0,0.1,0,0.1,0c0.3,0,0.5,0,0.8,0c0.2,0,0.5,0,0.7,0c0.3,0.1,0.5,0.2,0.8,0.3c0.2,0.1,0.4,0.2,0.6,0.3c0.2,0.1,0.4,0.4,0.6,0.5
	c0.2,0.2,0.4,0.3,0.5,0.5c0,0.1,0.1,0.1,0.1,0.1l47.7,81.5c2.7-1,5.6-1.6,8.7-1.6c14,0,25.3,11.3,25.3,25.3c0,7.7-3.5,14.5-9,19.2
	L228.3,155.4z"/>
</svg>
