<?xml version="1.0" encoding="utf-8"?>
<!-- Generator: Adobe Illustrator 19.1.0, SVG Export Plug-In . SVG Version: 6.00 Build 0)  -->
<svg version="1.1" id="Layer_1" xmlns="http://www.w3.org/2000/svg" xmlns:xlink="http://www.w3.org/1999/xlink" x="0px" y="0px"
	 viewBox="0 0 300 254.2" style="enable-background:new 0 0 300 254.2;" xml:space="preserve">
<style type="text/css">
	.st0{fill:#42AA19;}
	.st1{fill:#BD202E;}
	.st2{fill:#F05A29;}
	.st3{fill:#F7EA31;}
	.st4{fill:#016938;}
	.st5{fill:#A0AE39;}
	.st6{fill:#ECD01B;}
	.st7{fill:#FFF4B7;}
	.st8{fill:#FFFFFF;}
	.st9{fill:#E199C1;}
	.st10{fill:#492F8D;}
	.st11{fill:#C82127;}
</style>
<path class="st0" d="M225,0H75L0,127.1l75,127.1h150l75-127.1L225,0z M162.5,159.4h47.8l15.2,9.5l-15.2,9.5h-47.8l-6.5-4l-1.9,58.4
	h-7.4l-1.7-51.5l-9.3,5.8h-30.5L90,177.6l15.2-9.5h30.5l9,5.6l-0.7-20.2l-11.4,7.1H76.2L61,151.2l15.2-9.5h56.5l11.3,7l-0.5-15.4
	l-6.4,4H96.2l-15.2-9.5l15.2-9.5h40.9l6,3.8l0-0.3l0.6-14.6l-8.8,5.5H71.5L56.2,103l15.2-9.5h63.4l9.1,5.6l0.5-13.7l-7.9,4.9H81.9
	l-15.2-9.5l15.2-9.5h54.8l8.2,5.1l0.6-14.1l-8.9,5.6h-14.9l-15.2-9.5l15.2-9.5h14.9l9.2,5.7l0.7-17.6L134,44.9h-9.7l-15.2-9.5
	l15.2-9.5h9.7l12.5,7.8l0.1-2.7h-0.9l-15.2-9.5l15.2-9.5h13.1l15.2,9.5L158.9,31h-4.6l0.4,11.3l9.6-6H186l15.2,9.5L186,55.3h-21.8
	l-9.3-5.8l0.5,13.5l6.6-4.1h61.7l15.2,9.5l-15.2,9.5h-61.7l-6.2-3.8l0.4,10.3l7.5-4.7h33.9l15.2,9.5l-15.2,9.5h-33.9l-7.1-4.4
	l0.4,11.4l2.8-1.7h68.6l15.2,9.5l-15.2,9.5h-68.6l-2.1-1.3l0,0.1l-0.5,15.9l7.4-4.6h60l15.2,9.5l-15.2,9.5h-60l-7.7-4.8l-0.5,16.1
	L162.5,159.4z"/>
</svg>
