<?xml version="1.0" encoding="utf-8"?>
<!-- Generator: Adobe Illustrator 19.1.0, SVG Export Plug-In . SVG Version: 6.00 Build 0)  -->
<svg version="1.1" id="Layer_1" xmlns="http://www.w3.org/2000/svg" xmlns:xlink="http://www.w3.org/1999/xlink" x="0px" y="0px"
	 viewBox="0 0 300 254.2" style="enable-background:new 0 0 300 254.2;" xml:space="preserve">
<style type="text/css">
	.st0{fill:#42AA19;}
	.st1{fill:#BD202E;}
	.st2{fill:#F05A29;}
	.st3{fill:#F7EA31;}
	.st4{fill:#016938;}
	.st5{fill:#A0AE39;}
	.st6{fill:#ECD01B;}
	.st7{fill:#FFF4B7;}
	.st8{fill:#FFFFFF;}
	.st9{fill:#E199C1;}
	.st10{fill:#492F8D;}
	.st11{fill:#C82127;}
</style>
<path class="st0" d="M225,0H75L0,127.1l75,127.1h150l75-127.1L225,0z M189.1,214.8L150.3,61c0,0,7,155.2,6.7,159.7
	c-0.5,6-3.5,5.6-7.3,5.6c-3.8,0-4.5-5.7-4.5-5.7l-3.2-160.9l-29.2,157.1l-9.5-8.3l33.1-173.6c0,0,1.3-7,8.9-7c7.6,0,8.3,4.5,8.3,4.5
	l43.2,173.6L189.1,214.8z"/>
</svg>
