<?xml version="1.0" encoding="utf-8"?>
<!-- Generator: Adobe Illustrator 19.1.0, SVG Export Plug-In . SVG Version: 6.00 Build 0)  -->
<svg version="1.1" id="Layer_1" xmlns="http://www.w3.org/2000/svg" xmlns:xlink="http://www.w3.org/1999/xlink" x="0px" y="0px"
	 viewBox="0 0 300 254.2" style="enable-background:new 0 0 300 254.2;" xml:space="preserve">
<style type="text/css">
	.st0{fill:#42AA19;}
	.st1{fill:#BD202E;}
	.st2{fill:#F05A29;}
	.st3{fill:#F7EA31;}
	.st4{fill:#016938;}
	.st5{fill:#A0AE39;}
	.st6{fill:#ECD01B;}
	.st7{fill:#FFF4B7;}
	.st8{fill:#FFFFFF;}
	.st9{fill:#E199C1;}
	.st10{fill:#492F8D;}
	.st11{fill:#C82127;}
</style>
<path class="st0" d="M225,0H75L0,127.1l75,127.1h150l75-127.1L225,0z M128.1,148.8c-0.4,13-15.6,42.5-34.7,56.8
	c-19.1,14.3-23,13-28.6,10.4c-5.6-2.6-6.1-14.3,2.6-28.6c7.7-12.8,44.8-75.9,52.7-89.4l14.2,23.6
	C132.2,127.2,128.4,139.2,128.1,148.8z M147.2,118.5h-8.8l-13.8-23h22.6V118.5z M145.5,87.2V36.5h8.9v50.7l-4.5,7.3L145.5,87.2z
	 M152.8,118.5v-23h22.6l-13.8,23H152.8z M235.2,216c-5.6,2.6-9.5,3.9-28.6-10.4c-19.1-14.3-34.2-43.8-34.7-56.8
	c-0.3-9.6-4.2-21.6-6.2-27.2L179.9,98c7.9,13.4,45,76.6,52.7,89.4C241.3,201.7,240.9,213.4,235.2,216z"/>
</svg>
