<?xml version="1.0" encoding="utf-8"?>
<!-- Generator: Adobe Illustrator 19.1.0, SVG Export Plug-In . SVG Version: 6.00 Build 0)  -->
<svg version="1.1" id="Layer_1" xmlns="http://www.w3.org/2000/svg" xmlns:xlink="http://www.w3.org/1999/xlink" x="0px" y="0px"
	 viewBox="0 0 300 254.2" style="enable-background:new 0 0 300 254.2;" xml:space="preserve">
<style type="text/css">
	.st0{fill:#42AA19;}
	.st1{fill:#BD202E;}
	.st2{fill:#F05A29;}
	.st3{fill:#F7EA31;}
	.st4{fill:#016938;}
	.st5{fill:#A0AE39;}
	.st6{fill:#ECD01B;}
	.st7{fill:#FFF4B7;}
	.st8{fill:#FFFFFF;}
	.st9{fill:#E199C1;}
	.st10{fill:#492F8D;}
	.st11{fill:#C82127;}
</style>
<path class="st0" d="M225,0H75L0,127.1l75,127.1h150l75-127.1L225,0z M141.7,186.6c-5.7,2.3-21.9,7.2-38.7-2.4
	c-21-11.9-22.2-34.4-22.2-34.4s20-10.5,40.9,1.4c16.8,9.6,20.9,26,21.9,32L141.7,186.6z M141.7,138.2c-5.7,2.3-21.9,7.2-38.7-2.4
	c-21-11.9-22.2-34.4-22.2-34.4s20-10.5,40.9,1.4c16.8,9.6,20.9,26,21.9,32L141.7,138.2z M154.3,203.3c0,2.4-1.9,4.3-4.3,4.3
	c-2.4,0-4.3-1.9-4.3-4.3V126c0-2.4,1.9-4.3,4.3-4.3c2.4,0,4.3,1.9,4.3,4.3V203.3z M151.9,117.7h-3.9c-4.8-3.8-17.1-15.5-17.1-34.9
	c0-24.1,19-36.3,19-36.3s19,12.2,19,36.3C169,102.2,156.7,113.8,151.9,117.7z M197,184.2c-16.8,9.6-33,4.7-38.7,2.4l-1.9-3.4
	c1-6.1,5.1-22.5,21.9-32c21-11.9,40.9-1.4,40.9-1.4S218,172.3,197,184.2z M197,135.8c-16.8,9.6-33,4.7-38.7,2.4l-1.9-3.4
	c1-6.1,5.1-22.5,21.9-32c21-11.9,40.9-1.4,40.9-1.4S218,123.9,197,135.8z"/>
</svg>
