<?xml version="1.0" encoding="utf-8"?>
<!-- Generator: Adobe Illustrator 19.1.0, SVG Export Plug-In . SVG Version: 6.00 Build 0)  -->
<svg version="1.1" id="Layer_1" xmlns="http://www.w3.org/2000/svg" xmlns:xlink="http://www.w3.org/1999/xlink" x="0px" y="0px"
	 viewBox="0 0 300 254.2" style="enable-background:new 0 0 300 254.2;" xml:space="preserve">
<style type="text/css">
	.st0{fill:#42AA19;}
	.st1{fill:#BD202E;}
	.st2{fill:#F05A29;}
	.st3{fill:#F7EA31;}
	.st4{fill:#016938;}
	.st5{fill:#A0AE39;}
	.st6{fill:#ECD01B;}
	.st7{fill:#FFF4B7;}
	.st8{fill:#FFFFFF;}
	.st9{fill:#E199C1;}
	.st10{fill:#492F8D;}
	.st11{fill:#C82127;}
</style>
<g>
	<path class="st0" d="M163.2,109.7c0.1,0,0.1,0,0.2,0c0,0,0,0,0,0L163.2,109.7z"/>
	<path class="st0" d="M157,79.2C157,79.2,157,79.2,157,79.2c0-0.1,0-0.1,0-0.2c0,0-0.1,0-0.1-0.1C156.9,79.1,156.9,79.2,157,79.2z"
		/>
	<path class="st0" d="M159.1,107.3C159.1,107.3,159.2,107.4,159.1,107.3c0,0.4-0.1,1.4,0,1.7c0,0,0.1,1.3,0.2,1.9c0,0-0.1,0-0.1,0.2
		c0.1,0.6,0.3,0.6,0.5,0.7c0,0,0,0,0,0.1c0.6,0,1.2,0,1.8,0l0-0.3l-0.3,0c0-0.2,0-0.5,0-0.6c0.5-0.1,1.3-0.1,1.9-0.4
		c0-0.1,0-0.2,0-0.3c-0.5,0.1-0.9-0.3-1.4-0.5c0.5-0.1,1,0,1.5,0c0-0.2,0-0.5,0-0.5c-0.7-0.1-1.5-0.3-2.2-0.4c0,0,0-0.3,0-0.5
		c0.2,0,0.3,0,0.5,0c-0.5,0-0.7-0.5-0.8-0.6C160.3,107.3,159.7,107.3,159.1,107.3z"/>
	<path class="st0" d="M161.1,127.2c-0.1-0.1-0.3-0.3-0.5-0.4l0,0c0.1,0.4,0.1,0.9,0.2,1.3c0,0-0.1,0,0,0.2c0,0.1,0.1,0.2,0.1,0.3
		c0.2-0.1,0.3-0.3,0.3-0.9l-0.1,0C161.1,127.5,161.1,127.2,161.1,127.2z"/>
	<path class="st0" d="M151.9,94L151.9,94c0,0.1,0,0.2,0,0.3L151.9,94z"/>
	<path class="st0" d="M153.1,119.9c0,0.1,0,0.2,0,0.2c0-0.7,0-1.3-0.1-2c-0.4,0.1-0.7,0-0.9-0.3c0,0.6,0,1.2,0,1.7
		c0.2,0,0.6,0.1,0.6,0.2C152.9,119.6,153,120.1,153.1,119.9z"/>
	<path class="st0" d="M155.8,82.7c-0.1-0.2-0.2-0.5-0.2-0.6c-0.1-0.1-0.1-0.1-0.2-0.2c0,0.3,0,0.6,0,0.9
		C155.6,82.7,155.7,82.7,155.8,82.7C155.9,82.7,155.8,82.7,155.8,82.7z"/>
	<path class="st0" d="M167.8,132.5c-0.1,0-0.2,0-0.2-0.1c-0.4-0.8-1-1.3-1.7-1.1c0-0.3-0.1-0.5-0.3-0.6c0,0-0.1,0-0.2,0
		c-0.1,0.2-0.3,1.2-0.4,1.8c-0.1,0-0.1,0-0.1,0.2c-0.1,0.6,0.2,0.7,0.3,0.8c0,0,0,0.1,0,0.2c0,0,0,0,0.1,0c-0.2-0.3,0-0.6,0.1-0.7
		C166.3,132.8,167,132.6,167.8,132.5z"/>
	<path class="st0" d="M162.8,103.5c-0.5-0.1-0.9-0.2-1.4-0.3c-0.4,0-0.9,0.1-1-0.2c-0.4-0.8-1-1.3-1.8-1.1c0-0.3-0.1-0.5-0.3-0.6
		c0,0-0.1,0-0.1,0c-0.1,0.2-0.2,0.3-0.2,0.3c-0.6,0.2-1.3,0.2-1.8-0.1c0,0.2,0,0.5,0,0.7c0,0,0,0.1,0,0.2c0,0.2,0.1,0.1,0.1,0.1
		c0,0.2,0,0.2,0.1,0.3c0.1-0.2,0.2,0.1,0.2-0.2c0,0.2,0,0.2,0.1,0.3c0-0.2,0.2,0.1,0.1-0.2c0,0.2,0,0.2,0.1,0.3c0-0.2-0.1-0.3,0-0.3
		c0.1,0,0.1-0.2,0.1-0.2c0.1,0,0.4,0.1,0.5,0.2c0.1-0.2,0.2,0.3,0.3,0.1c0.1,0.5,0.1,1,0.2,1.3c0.2,0.3,0.6,1.3,0.8,2.2
		c0.3,0,0.6,0,0.9,0c0-0.1-0.1-0.2-0.1-0.2c0.3-0.2,0.8,0,1.1,0v-0.3c-0.5,0-0.8,0-1.3,0c-0.5-0.2-0.6-0.6-0.5-0.8
		c0.6-0.3,1.4-0.2,2-0.2c-0.2,0-0.2-0.2-0.2-0.3c0.7,0,1.3,0,2,0v-0.3h-0.3C162.8,104,162.8,103.7,162.8,103.5
		C162.8,103.5,162.8,103.5,162.8,103.5z"/>
	<path class="st0" d="M154.6,60.2l0-0.3c-0.1,0-0.2,0-0.4,0c0,0.1,0,0.2,0,0.3C154.4,60.2,154.5,60.3,154.6,60.2z"/>
	<path class="st0" d="M160.7,134.3c0,0.1-0.1,0.3-0.1,0.4c0,0-0.1,0.1-0.1,0.1c0.3,0,0.7,0,1-0.1C161.3,134.6,161,134.5,160.7,134.3
		z"/>
	<path class="st0" d="M157.9,152.4c0.4-0.2,0.9-0.4,1.1,0.2c0.1,0.1,0.2,0.2,0.3,0.3c0,0,0.1,0,0.1,0c0-0.1,0-0.1,0-0.2
		c0,0.3,0.1,0,0.1,0.2c0,0,0,0,0,0c0,0,0.1,0,0.1,0c0.2-0.1,0.4-0.2,0.6-0.2c-0.8-0.5-1.6-0.4-2.4-0.9
		C157.9,152,157.9,152.2,157.9,152.4z"/>
	<path class="st0" d="M147.9,67c0,0.3,0.1,0.5,0.2,0.6c0-0.3,0-0.6,0-0.9c0,0.1,0,0.1,0,0.2C148,66.8,147.9,66.8,147.9,67z"/>
	<path class="st0" d="M151.9,93.3c0.1,0,0.1,0,0.2,0c0-0.7-0.1-1.4-0.1-2c0,0,0,0,0,0c0,0,0-0.1,0-0.1c0-0.3,0-0.7,0-1
		c0-0.1-0.1-0.1-0.1-0.2C151.9,91.1,151.9,92.2,151.9,93.3z"/>
	<path class="st0" d="M127.3,145.7c-0.2,0-0.3,0-0.3,0.2c0,0.6,0.8,0.6,1.1,0.8c0.1,0.2,0.1,0.5,0,0.8c0.1,0,0.2,0,0.2,0
		c0,0.2,0,0.2,0,0.3c0.5-0.2,0.9,0.1,1.4-0.2l-0.2,0c0-0.2,0-0.5,0-0.6c1.1-0.2,3.4-0.1,2.9-1.3l-0.4,0c0-0.2,0-0.5,0-0.5
		c-0.9-0.1-1.9-0.2-2.8-0.4c0,0,0-0.3,0-0.5c0.2,0,0.4,0,0.6,0c-0.6,0-0.9-0.4-1.1-0.6c-0.2-0.1-0.4-0.2-0.6-0.3
		c0,0.1-0.1,0.1-0.1,0.2C127.8,143.8,127.3,145.1,127.3,145.7z"/>
	<path class="st0" d="M180.4,140.7c-0.2-0.3-0.4-0.3-0.6-0.3c-0.1,0.4-0.2,0.8-0.2,1.1c-0.2,0-0.4,0-0.4,0.2c0,0.6,1,0.6,1.4,0.7
		c0.2,0.3,0.1,1-0.1,1.3c0,0-0.3,1.2-0.9,1.7c0.3-0.1,0.6-0.2,0.9-0.2c-0.1,0-0.1-0.1-0.1-0.3c-0.1,0-0.3,0-0.3,0.1
		c0.5-0.1,1-0.2,1.5-0.2l-0.1-0.3l-0.2,0c0-0.2-0.1-0.5-0.1-0.6c0.4-0.2,1.4-0.2,1-1.3l-0.2,0c0-0.2-0.1-0.5-0.1-0.5
		c-0.4-0.1-0.8-0.2-1.2-0.3c0,0-0.1-0.3-0.1-0.5c0.1,0,0.2,0,0.3,0C180.7,141.3,180.5,140.8,180.4,140.7z"/>
	<path class="st0" d="M168.9,126.9c-1-0.4-2-0.6-3-0.7c0.1,0.6,0.2,1.4,0.2,2.1c0.4,0,0.8,0,1.3,0V128h-0.3c0-0.2,0-0.5,0-0.6
		C167.7,127.2,168.5,127.2,168.9,126.9z"/>
	<path class="st0" d="M144.9,163.9c-0.1-0.3-0.3-0.5-0.4-0.7c-0.3,0.4-0.8,1-0.9,1.3c0,0-0.1,0.1-0.1,0.2c0.3,0.1,0.6,0.1,0.6,0.2
		c0.3-0.2,0.4,0.3,0.7,0.2c0,0.5-0.3,1,0,1.3c0.3,0.3,0.8,1.1,1.1,1.9c0.1,0,0.1,0,0.2,0c-0.1,0-0.1-0.2-0.1-0.3c-0.1,0-0.2,0-0.2,0
		c0.1,0,0.2,0,0.2,0v0c0.3,0,0.5,0,0.8,0l0-0.3l-0.1,0c0-0.2,0-0.5,0-0.6c0.3-0.2,0.9,0,0.8-1.1l-0.1,0c0-0.2,0-0.5,0-0.5
		c-0.2-0.2-0.5-0.3-0.8-0.5c0,0,0-0.3,0-0.5c0.1,0,0.1,0,0.2,0c0,0,0-0.1-0.1-0.1c-0.3-0.1-0.7-0.1-1-0.3
		C145.2,164.1,145,164.1,144.9,163.9z"/>
	<path class="st0" d="M182.6,149c-0.1,0-0.3,0-0.3-0.1c-0.4-0.8-0.8-1.2-1.2-0.9c-0.1-0.3-0.2-0.5-0.3-0.6c-0.3-0.1-0.6,0.1-0.9,0.1
		c0.1-0.2,0.2-0.2,0.2-0.2c0.1-0.2-0.2-0.4-0.2-0.6c0.1-0.2,0.4-0.1,0.6-0.1l0-0.3c-0.3,0-0.4,0.1-0.7,0.1c-0.3-0.1-0.4-0.5-0.4-0.7
		c0,0-0.1,0.1-0.1,0.1c-0.3,0.1-0.6,0.2-1,0.2c0.7,0.4,2.3,2.4,2,3C181.1,148.9,181.8,149.1,182.6,149z"/>
	<path class="st0" d="M129,142.3c0,0,0,0.1-0.1,0.1c0.1,0,0.2,0,0.2,0C129.1,142.4,129.1,142.4,129,142.3z"/>
	<path class="st0" d="M162.6,144.6c0.1,0.5,0.2,1,0.2,1.2c0,0.1-0.1,0.4-0.1,0.7c0.9-0.1,1.8-0.3,2.6-0.6c0.3,0,0.1-0.5,0.4-0.5
		c-0.2-0.2-0.5-0.3-0.8-0.2c0-0.2-0.1-0.4-0.2-0.5c-0.4,0-0.8-0.1-1.1-0.1C163.2,144.6,162.8,144.7,162.6,144.6z"/>
	<path class="st0" d="M159.8,95.8c0,0,0-0.3,0-0.5c0.1,0,0.3,0,0.4,0c-0.4,0-0.5-0.3-0.6-0.5c-0.2,0.3-0.3,0.6-0.4,0.7
		c-0.1,0-0.5,1.2-0.5,1.9c-0.1,0-0.2,0-0.2,0.1c-0.1,0.6,0.3,0.7,0.5,0.9c0,0.1,0,0.3,0,0.4c0.4,0,0.8,0,1.3,0v-0.3H160
		c0-0.2,0-0.5,0-0.6c0.7-0.2,2.4,0,2.1-1.1h-0.3c0-0.2,0-0.5,0-0.5C161.1,96.1,160.4,96,159.8,95.8z"/>
	<path class="st0" d="M156,64.9l-0.2,0c0-0.2-0.1-0.5-0.1-0.5c-0.4-0.1-0.8-0.2-1.2-0.3c0.1,1,0.1,2,0.2,3c0.1,0,0.3,0,0.4-0.1
		l0-0.3l-0.2,0c0-0.2-0.1-0.5-0.1-0.6C155.2,66,156.3,66,156,64.9z"/>
	<path class="st0" d="M157.1,79.8c0,0.3,0,0.6,0,0.8c0,0,0,0.6,0,1.1c0.8-0.1,2.1,0,1.9-1l-0.3,0c0-0.2,0-0.5,0-0.5
		C158.2,80.1,157.6,79.9,157.1,79.8z"/>
	<path class="st0" d="M153,132.8l-0.1,0c0-0.2-0.1-0.5-0.1-0.5c-0.2-0.1-0.3-0.1-0.5-0.2c0,0.9,0,1.8,0,2.8c0.1,0,0.2,0.1,0.3,0
		c0-0.2,0-0.2,0-0.3c0,0.2,0.1,0.1,0.1,0.1l0-0.1l-0.1,0c0-0.2-0.1-0.5-0.1-0.6C152.7,133.8,153.3,133.9,153,132.8z"/>
	<path class="st0" d="M157.2,74.9l-0.1,0c0,0.1,0,0.2,0,0.3c0.1,0,0.1,0,0.2,0L157.2,74.9z"/>
	<path class="st0" d="M162.4,148.3c0,0.4,0,0.8,0,1.1c-0.1,0-0.1,0-0.1,0.2c0.1,0.6,0.3,0.6,0.5,0.8c0.1,0.2,0.1,0.6,0.1,0.9
		c0,0,0.1,0,0.1,0c0,0,0-0.1,0-0.1c0.8-0.3,2.7-0.3,2.2-1.4l-0.3,0c0-0.2-0.1-0.5-0.1-0.5c-0.7-0.1-1.5-0.2-2.2-0.2
		c0,0,0-0.3-0.1-0.5c0.2,0,0.3,0,0.5-0.1C162.7,148.6,162.5,148.5,162.4,148.3z"/>
	<path class="st0" d="M159.6,162.8c-0.1,0-0.1,0-0.2,0c0,0.2,0.1,0.3,0.2,0.4c0,0.2,0,0.4-0.1,0.6c0.1,0.1,0.2,0.1,0.3,0.1
		c0-0.2,0-0.2,0-0.3c0,0.3,0.1,0,0.2,0.2c0,0.2,0,0.2,0,0.3c0,0.2,0.1,0.2,0.1,0.2c0,0.2,0,0.2,0,0.3c0.1-0.2,0.2,0.2,0.3-0.1
		c0,0.2,0,0.2,0,0.3c0,0,0,0,0,0c0,0,0.1,0,0.1,0c0,0,0.1,0,0.1,0c0,0,0,0,0-0.1c0,0,0,0.1,0,0.1c0,0,0,0,0,0c0-0.1,0-0.1,0-0.1
		c0.2,0,0.2-0.2,0.2-0.2c0,0,0.1,0,0.1,0c0.2-0.1,0.3-0.4,0.2-0.8H161c0-0.1,0-0.2,0-0.3C160.5,163.3,160,163.2,159.6,162.8z"/>
	<path class="st0" d="M154.5,165.1C154.5,165.1,154.5,165.1,154.5,165.1c0-1.2,0-2.4-0.1-3.6c0,0,0,0,0,0c0,0,0,0,0-0.1
		c0-0.9,0-1.9-0.1-2.8c-0.3,0-0.5-0.1-0.8-0.4c-0.2-0.2-0.3-0.3-0.6-0.4c0,0.2,0,0.2,0,0.3c0-0.3-0.1,0-0.2-0.2c0-0.1,0-0.1,0-0.2
		c0,0.2-0.1,0.3-0.2,0.5c0,1.2,0,2.5,0.1,3.7c0,0,0.1,0,0.1,0.1c0.1,0.3,0.1,1,0.1,1.3c0,0,0,0.8-0.1,1.4c0.1,3.4,0.1,6.8,0.2,10.2
		c0.1,0.5,0.2,0.9,0.1,1.1c0,0,0,0.1-0.1,0.1c0.3,20.4,0.7,40.6,1.1,58.8h1.9C155.8,225.2,155.3,197.5,154.5,165.1
		C154.5,165.1,154.5,165.1,154.5,165.1z"/>
	<path class="st0" d="M164.1,171l-0.1,0c0,0,0,0,0,0c-0.7-0.2-1.5-0.3-2.2-0.5c-0.1,0.3-0.2,0.6-0.2,0.7c-0.1,0-0.2,1-0.3,1.7
		c0.4,0,0.8,0.1,1.3,0.1l0-0.3l-0.2,0c0-0.2,0-0.5,0-0.6c0.6-0.1,2,0.1,1.8-1C164.2,171,164.2,171,164.1,171z"/>
	<path class="st0" d="M147.2,39.2c0,0.2,0.1,0.1,0.2,0.1c0,0,0,0,0,0c0.1-0.1,0.2-0.1,0.3-0.1l-0.1-0.3c-0.1,0.1-0.2,0.1-0.3,0.1
		C147.1,39.1,147.1,39.2,147.2,39.2z"/>
	<path class="st0" d="M152.8,38.9c0.1,0.2,0.2,0.5,0.4,0.8c0.2-0.1,0.6-0.1,0.5-1.1h-0.1c0-0.2,0-0.5,0-0.5
		c-0.2-0.2-0.4-0.3-0.6-0.5c0,0,0-0.3,0-0.5c0,0,0.1,0,0.1,0c-0.1,0-0.2-0.5-0.2-0.6c-0.1-0.5-0.3-0.4-0.5-0.4
		c0.1,0.9,0.2,1.8,0.2,2.7C152.7,38.8,152.8,38.8,152.8,38.9z"/>
	<path class="st0" d="M171.9,167.3c3.1-0.4,6.2,0.2,9.3-0.1c-0.7-0.1-1.4-0.3-2.1-0.5c-0.4,0-0.8,0-0.9-0.2c-0.4-0.8-1-1.3-1.7-1.2
		c0-0.3-0.1-0.5-0.3-0.7c-0.4-0.2-1,0-1.4,0c0.1-0.2,0.3-0.2,0.4-0.1c0.1-0.2-0.3-0.5-0.1-0.6c0.3-0.2,0.7,0,1,0l0-0.3
		c-0.4,0-0.7,0-1.1,0c-0.4-0.2-0.5-0.7-0.4-0.8c0.6-0.3,1.3-0.1,1.9-0.1c-0.1,0-0.1-0.2-0.1-0.3c-0.2,0-0.4,0-0.6,0
		c0.1,0,0.4,0,0.6,0l0,0c0.6,0,1.2,0,1.9,0.1l0-0.3l-0.3,0c0-0.2,0-0.5,0-0.6c0.7-0.1,2.3,0.1,2-1.1l-0.3,0c0-0.2,0-0.5,0-0.5
		c-0.6-0.2-1.3-0.4-1.8-0.5c0,0,0-0.3,0-0.5c0.1,0,0.3,0,0.4,0c-0.4,0-0.6-0.5-0.7-0.7c-0.3-0.5-0.9-0.5-1.5-0.5
		c-0.6,0-1.2,0-1.8-0.1c-0.2-0.1-0.6-0.4-0.7-0.6c-2.1-0.6-4.2-0.4-6.4-0.5c0.1,0.6,0.2,1.2,0,1.4c-0.1,0.3-0.6,1.2-0.7,1.6
		c0,0-0.1,0.1-0.1,0.3c0.2-0.1,0.4,0.2,0.6-0.2c0,0.2,0,0.2,0,0.3c0.1-0.2,0.3,0.2,0.4-0.2c0,0.2,0,0.2,0,0.3c0-0.2,0-0.3,0.1-0.3
		c0.3,0,0.4-0.2,0.4-0.2c0.3,0,0.9,0.2,0.9,0.3c0.2-0.2,0.3,0.3,0.5,0.2c0,0.5-0.2,1,0,1.3c0.4,0.5,1.3,2.9,1,3.4
		c-0.1,0.3-0.7,1.3-0.8,1.6c0,0-0.1,0.1-0.1,0.2c0.3,0.1,0.6,0.3,0.9,0.3c0-0.2,0-0.2,0-0.3c0,0.3,0.2,0,0.4,0.2c0,0.2,0,0.2,0,0.3
		c0,0.2,0.1,0.2,0.2,0.2c0,0.2,0,0.2,0,0.3c0.3-0.1,0.5,0.2,0.8-0.1c0,0.2,0,0.2,0,0.3c0.1-0.2,0.4,0.2,0.5-0.1c0,0.2,0,0.2,0,0.3
		c0-0.2,0-0.3,0.1-0.3c0.4,0,0.5-0.1,0.5-0.1c0,0,0,0,0,0C172.6,167.4,172.3,167.3,171.9,167.3z"/>
	<path class="st0" d="M141.7,81.7c0,0.2,0,0.2-0.1,0.3c0.3-0.1,0.4,0.2,0.7,0c0,0.1,0,0.1,0,0.2c0.1-0.1,0.2-0.3,0.2-0.5
		c-0.3-0.1-0.6-0.2-0.9-0.3c0,0,0,0.1,0,0.1C141.5,81.6,141.6,81.7,141.7,81.7z"/>
	<path class="st0" d="M179.1,156.6c0.4,0,0.8-0.1,1.2-0.2c0-0.1-0.1-0.2,0-0.2c0.1-0.1,0.3-0.1,0.5,0c0-0.1,0.1-0.1,0.1-0.1v-0.1
		c-0.3,0-0.5,0-0.7,0c-0.3-0.2-0.4-0.6-0.3-0.8c0.4-0.3,0.8-0.2,1.2-0.2c-0.1,0-0.1-0.2-0.1-0.3c0.4,0,0.8,0,1.2,0v-0.3H182
		c0-0.2,0-0.5,0-0.6c0.5-0.2,1.5,0,1.3-1.1h-0.2c0-0.2,0-0.5,0-0.5c-0.4-0.2-0.8-0.3-1.2-0.5c0,0,0-0.3,0-0.5c0.1,0,0.2,0,0.3,0
		c-0.3,0-0.4-0.5-0.5-0.6c-0.3-0.6-0.9-0.3-1.5-0.5c-0.1,0-0.1-0.3-0.1-0.5c0,0,0,0-0.1,0c-0.3,0.5-0.8,1.1-0.9,1.4
		c-0.2,0-0.5,1.3-0.4,2c-0.2,0-0.3,0-0.3,0.2c0.1,0.6,0.9,0.5,1.2,0.7c0.2,0.3,0.1,1,0,1.3C179.6,154.9,179.5,156,179.1,156.6z"/>
	<path class="st0" d="M181.3,170.8c0-0.2,0-0.5,0-0.5c-0.9-0.2-2-0.4-2.8-0.5c0,0,0-0.3,0-0.5c0.2,0,0.4,0,0.7,0
		c-0.7,0-0.9-0.5-1.1-0.7c-0.6-0.7-2.2-0.4-3.5-0.6c0,0.5-0.3,0.9-0.1,1.3c0.5,0.5,1.3,2.9,1,3.4c0.1,0,0.3,0,0.4,0
		c1.1,0,2,0,3.1,0.1l0-0.3l-0.4,0c0-0.2,0-0.5,0-0.6c1.1-0.1,3.5,0.1,3.1-1.1L181.3,170.8z"/>
	<path class="st0" d="M225,0H75L0,127.1l75,127.1h150l75-127.1L225,0z M201.7,172.2c-0.2,0.3-1.6,1.2-1.8,1.6
		c-0.2,0-0.9,1.3-0.9,1.9c-0.2,0-0.4,0-0.4,0.2c0,0.6,1.1,0.7,1.5,0.8c0.2,0.3,0,1-0.2,1.3c0,0-0.7,1.7-1.6,1.9
		c-1.8,0.3-4,0.4-5.7-0.1c-0.2-0.2-0.6-0.5-0.9-0.7c-3.5-1.2-7.4-1-11-1.8c-0.6,0-1.3,0-1.4-0.2c-0.6-0.8-1.5-1.3-2.6-1.2
		c0-0.3-0.2-0.5-0.4-0.7c-0.6-0.2-1.5,0-2.2,0c-0.1,0.4-0.2,0.8-0.3,1.1c-0.1,0-0.2,0-0.3,0.1c0,0.6,0.6,0.7,0.8,0.9
		c0.1,0.3-0.1,1-0.2,1.3c0,0-0.5,1.7-1,1.9c-1,0.2-2.3,0.3-3.2-0.2c-0.1-0.2-0.3-0.5-0.4-0.7c-1.9-1.3-4.1-1.1-6.1-2
		c-0.3,0-0.7,0-0.8-0.2c-0.3-0.7-0.6-1-1.1-1.1c-0.1,0.5-0.2,1.2-0.4,1.2c-0.5,0.3-1,0.4-1.5,0c-0.1-0.2-0.2-0.5-0.2-0.6
		c-0.2-0.3-0.5-0.5-0.8-0.7c0.9,35.5,1.3,62.8,1.3,62.8h-9.4c0,0-0.5-23.3-1.1-54.7c-0.2,0-0.5-0.1-0.7-0.3
		c-0.1-0.2-0.3-0.5-0.4-0.6c-1.6-1.1-3.5-0.9-5.2-1.7c-0.3,0-0.6,0.1-0.7-0.2c-0.3-0.8-0.7-1.3-1.2-1.1c0-0.3-0.1-0.5-0.2-0.6
		c-0.3-0.2-0.7,0-1,0c0.1-0.2,0.2-0.2,0.3-0.2c0.1-0.2-0.2-0.5-0.1-0.6c0.2-0.2,0.5,0,0.7,0l0-0.3c-0.3,0-0.5,0-0.8,0
		c-0.3-0.2-0.4-0.6-0.3-0.8c0.2-0.1,0.4-0.2,0.6-0.2c-0.1-0.2-0.4-0.4-0.5-0.6c-2.2-1.1-4.6-0.8-7-1.6c-0.4,0-0.8,0.1-0.9-0.2
		c-0.4-0.8-1-1.3-1.7-1.1c0-0.3-0.1-0.5-0.3-0.6c-0.4-0.2-1,0-1.4,0c0.1-0.2,0.3-0.2,0.4-0.2c0.1-0.2-0.3-0.5-0.1-0.6
		c0.3-0.2,0.7,0,1,0v-0.3c-0.4,0-0.7,0-1.1,0c-0.4-0.2-0.6-0.6-0.4-0.8c0.6-0.3,1.2-0.2,1.8-0.2c-0.1,0-0.1-0.2-0.1-0.3
		c0.6,0,1.2,0,1.8,0v-0.3h-0.3c0-0.2,0-0.5,0-0.6c0.6-0.1,1.6-0.1,1.9-0.6c-1.1-0.1-2.3-0.2-3.4-0.5c-0.4,0-0.9,0.1-1-0.1
		c-0.5-0.8-1.1-1.2-1.9-1.1c0-0.3-0.2-0.5-0.3-0.6c-0.5-0.1-1.1,0-1.6,0c0.2-0.2,0.3-0.2,0.5-0.2c0.2-0.2-0.3-0.5-0.2-0.6
		c0.3-0.2,0.8,0,1.1,0l0-0.3c-0.5,0-0.8,0-1.3,0c-0.5-0.1-0.6-0.6-0.5-0.8c0.6-0.3,1.4-0.2,2-0.2c-0.2,0-0.2-0.2-0.2-0.3
		c-0.2,0-0.5,0-0.6,0c0.9,0,1.7-0.1,2.7-0.1l0-0.3l-0.3,0c0-0.2,0-0.5,0-0.6c0.5-0.1,1.5-0.1,2-0.5c-2.4-0.6-4.9-0.7-7.3-1.4
		c-0.5,0-1,0-1.1-0.2c0,0.4-0.3,0.9,0,1.2c0.7,0.5,2.2,2.9,1.7,3.4c-0.2,0.3-1.2,1.3-1.3,1.6c-0.2,0-0.7,1.3-0.7,1.9
		c-0.2,0-0.3,0-0.3,0.2c0,0.6,0.8,0.6,1.2,0.8c0.1,0.2,0.1,0.5,0,0.8c0.1,0,0.2-0.1,0.3-0.1c0,0.2,0,0.2,0,0.3c0-0.2,0-0.3,0.2-0.3
		c0.7,0,1-0.2,1-0.2c0.7,0,2.2,0.1,2.2,0.3c0.5-0.2,0.7,0.3,1.2,0.1c0,0.5-0.5,1,0,1.3c1,0.5,3.2,2.8,2.5,3.3
		c-0.2,0.3-1.7,1.3-1.9,1.6c-0.2,0-1,1.3-0.9,1.9c-0.2,0-0.5,0-0.5,0.2c0,0.6,1.2,0.6,1.7,0.8c0.2,0.3,0,1-0.2,1.3
		c0,0-0.7,1.8-1.7,2c-1.9,0.4-4.4,0.6-6.3,0.1c-0.2-0.2-0.7-0.5-1-0.6c-3.9-1-8.2-0.7-12.3-1.4c-0.7,0-1.4,0.1-1.6-0.1
		c-0.7-0.8-1.7-1.3-2.9-1.1c0-0.3-0.3-0.5-0.5-0.6c-0.7-0.1-1.7,0-2.4,0c0.2-0.2,0.5-0.2,0.7-0.2c0.2-0.2-0.5-0.5-0.3-0.6
		c0.5-0.2,1.2,0,1.7,0l0-0.3c-0.7,0-1.2,0-2,0c-0.7-0.1-1-0.6-0.7-0.8c1-0.3,2.2-0.2,3.2-0.2c-0.2,0-0.2-0.2-0.2-0.3
		c-0.2,0-0.7,0-1,0c1.5,0,2.7-0.1,4.1-0.1l0-0.3l-0.5,0c0-0.2,0-0.5,0-0.6c1.2-0.2,3.9-0.1,3.4-1.2l-0.5,0c0-0.2,0-0.5,0-0.5
		c-1-0.1-2.2-0.3-3.2-0.4c0,0,0-0.3,0-0.5c0.2,0,0.5,0,0.7,0c-0.7,0-1-0.5-1.2-0.6c-0.7-0.6-2.4-0.3-3.9-0.4c-0.2,0-0.2-0.3-0.3-0.5
		c-1,0.2-1.7-0.1-2.7-0.3c3.9-0.6,7.8,0.2,11.7-0.7c0,0,0,0,0.1,0c-0.2,0-0.4-0.1-0.6-0.1c-0.5,0-1,0.1-1.1-0.2
		c-0.5-0.8-1.2-1.3-2-1.1c0-0.3-0.2-0.5-0.3-0.6c-0.5-0.2-1.2,0-1.7,0c0.2-0.2,0.3-0.2,0.5-0.2c0.2-0.2-0.3-0.5-0.2-0.6
		c0.3-0.2,0.8,0,1.2,0v-0.3c-0.5,0-0.8,0-1.3,0c-0.5-0.2-0.7-0.6-0.5-0.8c0.7-0.3,1.5-0.2,2.2-0.2c-0.2,0-0.2-0.2-0.2-0.3
		c0.7,0,1.4,0,2.2,0v-0.3h-0.3c0-0.2,0-0.5,0-0.6c0.8-0.2,2.7,0,2.3-1.1h-0.3c0-0.2,0-0.5,0-0.5c-0.7-0.2-1.5-0.3-2.2-0.5
		c0,0,0-0.3,0-0.5c0.2,0,0.3,0,0.5,0c-0.5,0-0.7-0.5-0.8-0.6c-0.5-0.6-1.7-0.3-2.7-0.5c-0.2,0-0.2-0.3-0.2-0.5
		c-0.7,0.2-1.2-0.2-1.8-0.3c2.6-0.5,5.3,0.3,8-0.5c0.3,0,0.2-0.5,0.5-0.5c0.2,0,0.3,0,0.5,0c-0.2-0.3,0-0.6,0.2-0.6
		c1.5-0.3,3.1-0.6,4.5,0c0.5,0.2,1,0.3,1.7,0.3c0-0.2,0-0.2,0-0.3c0,0.3,0.3,0,0.5,0.2c0,0.2,0,0.2,0,0.3c0,0.2,0.2,0.2,0.3,0.2
		c0,0.2,0,0.2,0,0.3c0.3-0.2,0.7,0.2,1-0.2c0,0.2,0,0.2,0,0.3c0.2-0.2,0.5,0.2,0.7-0.2c0,0.2,0,0.2,0,0.3c0-0.2,0-0.3,0.2-0.3
		c0.5,0,0.7-0.2,0.7-0.2c0.5,0,1.5,0.2,1.5,0.3c0.3-0.1,0.5,0.2,0.7,0.2c-0.5-0.8-1.2-1.2-2-1.1c0-0.3-0.2-0.5-0.3-0.7
		c-0.5-0.2-1.2,0-1.7,0c0.2-0.2,0.4-0.2,0.5-0.1c0.2-0.2-0.3-0.5-0.2-0.6c0.1,0,0.2,0,0.2,0c-1-0.1-2-0.2-3-0.4
		c-0.6,0-1.3,0.1-1.5-0.2c-0.7-0.8-1.6-1.3-2.8-1.1c0-0.3-0.2-0.5-0.5-0.6c-0.7-0.2-1.6,0-2.3,0c0.2-0.2,0.5-0.2,0.7-0.2
		c0.2-0.2-0.5-0.5-0.2-0.6c0.5-0.2,1.2,0,1.6,0v-0.3c-0.7,0-1.2,0-1.8,0c-0.7-0.2-0.9-0.6-0.7-0.8c0.9-0.3,2.1-0.2,3-0.2
		c-0.2,0-0.2-0.2-0.2-0.3c1,0,1.9,0,3,0v-0.3h-0.5c0-0.2,0-0.5,0-0.6c1.2-0.2,3.7,0,3.2-1.1h-0.5c0-0.2,0-0.5,0-0.5
		c-0.9-0.2-2.1-0.3-3-0.5c0,0,0-0.3,0-0.5c0.2,0,0.5,0,0.7,0c-0.7,0-0.9-0.5-1.2-0.6c-0.7-0.6-2.3-0.3-3.7-0.5
		c-0.2,0-0.2-0.3-0.2-0.5c-0.9,0.2-1.6-0.2-2.5-0.3c3.5-0.5,7,0.2,10.6-0.4c-0.6-0.1-1.3-0.2-1.9-0.4c-0.4,0-0.9,0.1-1-0.2
		c-0.5-0.8-1.1-1.3-1.8-1.1c0-0.3-0.2-0.5-0.3-0.6c-0.5-0.2-1.1,0-1.5,0c0.2-0.2,0.3-0.2,0.5-0.2c0.2-0.2-0.3-0.5-0.2-0.6
		c0.3-0.2,0.8,0,1.1,0v-0.3c-0.5,0-0.8,0-1.2,0c-0.5-0.2-0.6-0.6-0.5-0.8c0.6-0.3,1.4-0.2,2-0.2c-0.2,0-0.2-0.2-0.2-0.3
		c0.7,0,1.3,0,2,0V143h-0.3c0-0.2,0-0.5,0-0.6c0.8-0.2,2.4,0,2.1-1.1H115c0-0.2,0-0.5,0-0.5c-0.6-0.2-1.4-0.3-2-0.5c0,0,0-0.3,0-0.5
		c0.2,0,0.3,0,0.5,0c-0.5,0-0.6-0.5-0.8-0.6c-0.5-0.6-1.5-0.3-2.4-0.5c-0.2,0-0.2-0.3-0.2-0.5c-0.6,0.2-1.1-0.2-1.7-0.3
		c2.4-0.5,4.9,0.3,7.3-0.5c0.3,0,0.2-0.5,0.5-0.5c0.2,0,0.3,0,0.5,0c-0.2-0.3,0-0.6,0.2-0.6c1.4-0.3,2.9-0.6,4.1,0
		c0.5,0.2,0.9,0.3,1.5,0.3c0-0.2,0-0.2,0-0.3c0,0.3,0.3,0,0.5,0.2c0,0.2,0,0.2,0,0.3c0,0.2,0.2,0.2,0.3,0.2c0,0.2,0,0.2,0,0.3
		c0.3-0.2,0.6,0.2,0.9-0.2c0,0.2,0,0.2,0,0.3c0.2-0.2,0.5,0.2,0.6-0.2c0,0.2,0,0.2,0,0.3c0-0.2,0-0.3,0.2-0.3c0.5,0,0.6-0.2,0.6-0.2
		c0.5,0,1.4,0.2,1.4,0.3c0.3-0.2,0.5,0.3,0.8,0.2c0,0.5-0.3,1,0,1.3c0,0,0.1,0.1,0.1,0.1c0.6,0,1.2,0,1.9,0v-0.3h-0.4
		c0-0.2,0-0.5,0-0.6c0.9-0.2,2.9,0,2.6-1.1h-0.4c0-0.2,0-0.5,0-0.5c-0.7-0.2-1.7-0.3-2.4-0.5c0,0,0-0.3,0-0.5c0.2,0,0.4,0,0.6,0
		c-0.6,0-0.7-0.5-0.9-0.6c-0.1-0.1-0.3-0.2-0.4-0.3c-0.5,0-1-0.1-1.5-0.2c-0.4,0-0.7,0-1-0.1c-0.1,0-0.1-0.1-0.1-0.2
		c-0.4-0.1-0.8-0.1-1.2-0.2c-0.5,0-1,0.1-1.2-0.2c-0.5-0.8-1.2-1.3-2.1-1.1c0-0.3-0.2-0.5-0.3-0.6c-0.5-0.2-1.2,0-1.7,0
		c0.2-0.2,0.4-0.2,0.5-0.2c0.2-0.2-0.4-0.5-0.2-0.6c0.3-0.2,0.9,0,1.2,0v-0.3c-0.5,0-0.9,0-1.4,0c-0.5-0.2-0.7-0.6-0.5-0.8
		c0.7-0.3,1.6-0.2,2.3-0.2c-0.2,0-0.2-0.2-0.2-0.3c0.8,0,1.5,0,2.3,0v-0.3h-0.3c0-0.2,0-0.5,0-0.6c0.9-0.2,2.8,0,2.4-1.1h-0.3
		c0-0.2,0-0.5,0-0.5c-0.7-0.2-1.6-0.3-2.3-0.5c0,0,0-0.3,0-0.5c0.2,0,0.3,0,0.5,0c-0.5,0-0.7-0.5-0.9-0.6c-0.5-0.6-1.7-0.3-2.8-0.5
		c-0.2,0-0.2-0.3-0.2-0.5c-0.7,0.2-1.2-0.2-1.9-0.3c2.8-0.5,5.6,0.3,8.4-0.5c0,0,0-0.1,0.1-0.1c-0.2,0-0.4-0.1-0.5-0.1
		c-0.5,0-1.2,0-1.3-0.2c-0.6-0.8-1.4-1.3-2.3-1.2c0-0.3-0.2-0.5-0.4-0.7c-0.6-0.2-1.4,0-2,0c0.2-0.2,0.4-0.2,0.6-0.1
		c0.2-0.2-0.4-0.5-0.2-0.6c0.4-0.2,1,0,1.4,0l0-0.3c-0.6,0-1,0-1.6,0c-0.6-0.2-0.8-0.7-0.6-0.8c0.8-0.3,1.8-0.1,2.6-0.1
		c-0.2,0-0.2-0.2-0.2-0.3c-0.3,0-0.5,0-0.8,0c0.2,0,0.6,0,0.8,0l0,0c0.9,0,1.7,0,2.6,0.1l0-0.3l-0.4,0c0-0.2,0-0.5,0-0.6
		c1-0.1,3.2,0.1,2.8-1.1l-0.4,0c0-0.2,0-0.5,0-0.5c-0.8-0.2-1.8-0.4-2.6-0.5c0,0,0-0.3,0-0.5c0.2,0,0.4,0,0.6,0
		c-0.6,0-0.8-0.5-1-0.7c-0.6-0.7-2-0.4-3.2-0.6c-0.2,0-0.2-0.3-0.2-0.5c-0.8,0.1-1.4-0.2-2.2-0.4c3.2-0.4,6.3,0.5,9.5-0.3
		c0.4,0,0.2-0.5,0.6-0.5c0.2,0,0.4,0,0.6,0c-0.2-0.3,0-0.6,0.2-0.6c0.5-0.1,1-0.1,1.4-0.2c-0.4-0.6-0.9-1-1.6-0.9
		c0-0.3-0.1-0.5-0.3-0.7c-0.5-0.2-1.2-0.1-1.7-0.1c0.2-0.1,0.3-0.1,0.5-0.1c0.2-0.1-0.3-0.5-0.1-0.7c0.3-0.1,0.8,0.1,1.2,0.1l0-0.3
		c-0.5,0-0.8-0.1-1.3-0.1c-0.5-0.2-0.6-0.7-0.4-0.8c0.7-0.3,1.5,0,2.2,0c-0.2,0-0.2-0.2-0.1-0.3c-0.2,0-0.5,0-0.7-0.1
		c1,0.1,1.8,0.2,2.8,0.2l0-0.3l-0.3,0c0-0.2,0-0.5,0.1-0.6c0.8-0.1,2.7,0.2,2.4-0.9l-0.3,0c0-0.2,0-0.5,0-0.5
		c-0.6-0.2-1.5-0.4-2.1-0.7c0,0,0-0.3,0-0.5c0.2,0,0.3,0,0.5,0c-0.5,0-0.6-0.5-0.8-0.7c-0.4-0.7-1.6-0.5-2.6-0.7
		c-0.2,0-0.1-0.3-0.1-0.5c-0.7,0.1-1.1-0.3-1.8-0.5c2.7-0.3,5.3,0.8,8,0.2c0,0,0,0,0.1,0c-0.4,0-0.8,0.1-1.2,0.1
		c0.1-0.2,0.3-0.2,0.4-0.2c0.1-0.2-0.3-0.5-0.2-0.6c0.3-0.2,0.8,0,1.1-0.1l0-0.3c-0.5,0-0.8,0-1.2,0.1c-0.5-0.1-0.6-0.6-0.5-0.8
		c0.6-0.4,1.4-0.2,2-0.3c-0.2,0-0.2-0.2-0.2-0.3c-0.2,0-0.5,0-0.6,0c0.9-0.1,1.7-0.1,2.6-0.2l0-0.3l-0.3,0c0-0.2,0-0.5,0-0.6
		c0.7-0.2,2.4-0.1,2.1-1.3l-0.3,0c0-0.2,0-0.5,0-0.5c0,0,0,0,0,0c0,0-0.1,0-0.1,0c-0.2,0-0.4,0-0.6-0.1c-0.5-0.1-0.9-0.2-1.3-0.2
		c0,0,0-0.3,0-0.5c0.2,0,0.3,0,0.5,0c-0.4,0-0.6-0.4-0.8-0.5c0,0-0.1,0-0.1,0c0-0.1,0-0.1,0-0.1c-0.5-0.5-1.5-0.2-2.4-0.3
		c-0.2,0-0.2-0.3-0.2-0.5c-0.6,0.2-1.1-0.1-1.7-0.2c1-0.3,2-0.3,3.1-0.3c0,0,0-0.1,0-0.1c0.3-0.2,0.6,0,0.9,0l0-0.3
		c-0.4,0-0.6,0-1,0c-0.4-0.2-0.5-0.7-0.4-0.8c0.5-0.3,1.2-0.1,1.7-0.1c-0.1,0-0.1-0.2-0.1-0.3c-0.2,0-0.3,0-0.5,0c0.1,0,0.4,0,0.5,0
		l0,0c0.6,0,1.1,0,1.7,0.1l0-0.3l-0.3,0c0-0.1,0-0.3,0-0.4c-0.8-0.3-1.6-0.6-2.4-1.1c-0.3,0-0.7-0.1-0.7-0.3
		c-0.2-0.9-0.5-1.4-1.1-1.4c0.1-0.3,0-0.5-0.1-0.7c-0.3-0.2-0.8-0.2-1.1-0.2c0.1-0.1,0.3-0.1,0.4-0.1c0.1-0.1-0.1-0.5,0-0.7
		c0.3-0.1,0.6,0.1,0.8,0.2l0.1-0.3c-0.3-0.1-0.6-0.1-0.9-0.2c-0.3-0.2-0.3-0.7-0.2-0.9c0.5-0.2,1,0.1,1.5,0.1c-0.1,0-0.1-0.2,0-0.3
		c-0.1,0-0.3-0.1-0.4-0.1c0.1,0,0.3,0.1,0.4,0.1l0,0c0.5,0.1,0.9,0.2,1.4,0.3l0.1-0.3l-0.2,0c0-0.2,0.1-0.5,0.1-0.6
		c0.6,0,1.8,0.4,1.8-0.8l-0.2,0c0-0.2,0.1-0.5,0.1-0.5c-0.4-0.2-0.9-0.5-1.3-0.8c0,0,0.1-0.3,0.1-0.5c0.1,0,0.2,0,0.3,0.1
		c-0.3-0.1-0.3-0.6-0.4-0.7c-0.2-0.7-1-0.5-1.7-0.8c-0.1,0,0-0.3,0-0.5c-0.5,0.1-0.7-0.3-1.1-0.6c1.9-0.1,3.5,1,5.4,0.6
		c0.2,0,0.2-0.4,0.4-0.4c0.1,0,0.2,0,0.3,0.1c0-0.3,0.1-0.6,0.2-0.6c0.5,0,1-0.1,1.4,0c-0.3-0.6-0.6-1.1-1.1-1
		c0-0.3-0.1-0.5-0.2-0.7c-0.3-0.2-0.8-0.1-1.2-0.1c0.1-0.1,0.2-0.1,0.4-0.1c0.1-0.1-0.2-0.5,0-0.7c0.2-0.1,0.6,0.1,0.8,0.1l0-0.3
		c-0.3,0-0.6-0.1-0.9-0.1c-0.3-0.2-0.4-0.7-0.2-0.8c0.1-0.1,0.2,0,0.3,0c-0.3-0.5-0.7-0.7-1.1-0.6c0-0.3-0.1-0.5-0.2-0.6
		c-0.3-0.2-0.8,0-1.2,0c0.1-0.2,0.2-0.2,0.3-0.2c0.1-0.2-0.2-0.5-0.1-0.6c0.2-0.2,0.6,0,0.8,0v-0.3c-0.3,0-0.6,0-0.9,0
		c-0.3-0.2-0.5-0.6-0.3-0.8c0.5-0.3,1-0.2,1.5-0.2c-0.1,0-0.1-0.2-0.1-0.3c0.5,0,1,0,1.5,0v-0.3h-0.2c0-0.2,0-0.5,0-0.6
		c0.3-0.1,0.8-0.1,1.2-0.3c-0.1,0-0.3,0-0.4-0.1c-0.1,0-0.1-0.3-0.1-0.5c-0.5,0.1-0.8-0.3-1.2-0.5c0.6-0.1,1.2,0,1.8,0.1
		c0-0.2,0-0.3,0-0.3c-0.5-0.2-1-0.3-1.5-0.5c0,0,0-0.3,0-0.5c0.1,0,0.2,0,0.3,0c-0.3,0-0.5-0.5-0.6-0.6c-0.3-0.6-1.2-0.3-1.8-0.5
		c-0.1,0-0.1-0.3-0.1-0.5c-0.5,0.2-0.8-0.2-1.3-0.3c1.8-0.5,3.7,0.3,5.5-0.5c0.2,0,0.1-0.5,0.3-0.5c0.1,0,0.2,0,0.3,0
		c-0.1-0.3,0-0.6,0.1-0.6c0,0,0.1,0,0.1,0c0,0,0,0,0,0c0,0,0.1,0,0.1,0c0.2,0,0.3-0.1,0.5-0.1l0-0.1c-0.2,0-0.4,0-0.6,0
		c-0.2-0.2-0.3-0.7-0.2-0.8c0.3-0.3,0.7-0.1,1-0.1c-0.1,0-0.1-0.2-0.1-0.3c-0.1,0-0.2,0-0.3,0c0.1,0,0.2,0,0.3,0l0,0
		c0.3,0,0.7,0,1,0.1l0-0.3l-0.2,0c0-0.2,0-0.5,0-0.6c0.4-0.1,1.3,0.1,1.2-1.1l-0.2,0c0-0.2,0-0.5,0-0.5c-0.3-0.2-0.7-0.4-1-0.5
		c0,0,0-0.3,0-0.5c0.1,0,0.2,0,0.2,0c-0.2,0-0.3-0.5-0.4-0.7c-0.2-0.7-0.8-0.4-1.2-0.6c-0.1,0-0.1-0.3-0.1-0.5
		c-0.3,0.1-0.5-0.2-0.8-0.4c1.2-0.4,2.3,0.3,3.4-0.2c0,0,0-0.1,0-0.1c-0.1,0-0.2,0-0.2,0c0.2,0,0.4,0,0.6,0c0.1-0.1,0.1-0.4,0.2-0.4
		c0-0.2,0-0.4,0-0.6c0.3-0.2,0.8-0.1,0.8-1c-0.2-0.1-0.4,0-0.5,0c0-0.2,0.1-0.2,0.2-0.2c0-0.2-0.2-0.5-0.1-0.6c0,0,0.1,0,0.1,0
		c-0.2-0.1-0.4-0.2-0.6-0.3c0,0,0-0.3,0-0.5c0.1,0,0.1,0,0.2,0c-0.2,0-0.3-0.5-0.3-0.6c-0.2-0.6-0.6-0.3-1-0.4
		c-0.1,0-0.1-0.3-0.1-0.5c-0.2,0.2-0.4-0.1-0.7-0.3c0.9-0.6,1.9,0.2,2.8-0.7c0.1,0,0-0.5,0.1-0.5c0.1,0,0.1,0,0.2,0
		c-0.1-0.3,0-0.6,0-0.6c0.1,0,0.1-0.1,0.2-0.1c-0.1,0-0.2-0.1-0.3-0.2c0,0,0-0.3,0-0.5c0.1,0,0.1,0,0.2,0c-0.2,0-0.3-0.5-0.3-0.6
		c-0.2-0.6-0.6-0.3-0.9-0.4c-0.1,0-0.1-0.3-0.1-0.5c-0.2,0.2-0.4-0.1-0.6-0.3c0.7-0.4,1.4-0.1,2.1-0.4l0,0c-0.2-0.1-0.4-0.6-0.4-0.7
		c0.2-0.4,0.5-0.3,0.7-0.3c-0.1,0-0.1-0.1-0.1-0.3c-0.1,0-0.2,0-0.2,0.1c0.1,0,0.2,0,0.2-0.1v0c0.2,0,0.4-0.1,0.6-0.1
		c0,0,0.1-0.1,0.1-0.1l-0.1-0.2l-0.1,0c0-0.2-0.1-0.5-0.1-0.6c0.3-0.2,1-0.2,0.6-1.3l-0.1,0c0-0.2-0.1-0.5-0.1-0.5
		c-0.3-0.1-0.6-0.2-0.9-0.3c0,0-0.1-0.3-0.1-0.5c0.1,0,0.1,0,0.2,0c-0.2,0-0.3-0.4-0.4-0.6c-0.3-0.6-0.7-0.2-1.1-0.2
		c-0.1,0-0.1-0.3-0.2-0.5c-0.2,0.2-0.5-0.1-0.7-0.2c0.8-0.7,2-0.1,2.8-1.1c0.1,0,0-0.5,0.1-0.5c0.1,0,0.1,0,0.2,0
		c-0.1-0.3-0.1-0.6-0.1-0.6c0.5-0.4,1-0.9,1.6-0.4c0.2,0.1,0.4,0.2,0.7,0.2c0-0.1,0-0.1,0-0.2c-0.1-0.2-0.2-0.3-0.2-0.4
		c0-0.4,0.3-0.3,0.5-0.4c0,0-0.1-0.1-0.2-0.3c0,0-0.1,0.1-0.2,0.1c0.2-0.1,0.5-0.2,0.7-0.3l-0.1-0.3l-0.1,0
		c-0.1-0.1-0.2-0.4-0.3-0.6c0.1-0.2,0.7-0.3,0.1-1.3l-0.1,0c-0.1-0.1-0.2-0.4-0.2-0.4c-0.2-0.1-0.5-0.1-0.7-0.2c0,0-0.1-0.3-0.2-0.4
		c0,0,0.1,0,0.1-0.1c-0.1,0.1-0.4-0.4-0.5-0.5c-0.4-0.5-0.5-0.1-0.9-0.1c0,0-0.2-0.3-0.2-0.4c-0.1,0.2-0.4,0-0.6-0.1
		c0.5-0.7,1.5-0.3,1.8-1.3c0.1,0-0.2-0.5-0.1-0.5c0,0,0.1,0,0.1-0.1c-0.2-0.3-0.3-0.6-0.2-0.6c0.2-0.5,0.5-0.9,1.1-0.5
		c0.2,0.1,0.4,0.2,0.5,0.1c-0.1-0.1-0.1-0.1-0.1-0.3c0.1,0.3,0.1,0,0.2,0.1c0.1,0.1,0.1,0.1,0.1,0.3c0.1,0.1,0.1,0.1,0.1,0.1
		c0.1,0.1,0.1,0.1,0.1,0.3c0-0.2,0.2,0.1,0.2-0.3c0.1,0.1,0.1,0.1,0.1,0.3c0-0.2,0.2,0.1,0.1-0.2c0.1,0.1,0.1,0.1,0.1,0.3
		c-0.1-0.1-0.1-0.3-0.1-0.3c0.1,0,0.1-0.1,0.1-0.2c-0.1-0.1-0.2-0.2-0.3-0.3c-0.2-0.3,0.1-0.3,0.1-0.4c0,0-0.1-0.1-0.2-0.2
		c0,0-0.1,0.1-0.1,0.1c0.1-0.1,0.2-0.2,0.3-0.3l-0.2-0.2l0,0c-0.1-0.1-0.3-0.3-0.5-0.5c0-0.2,0.3-0.3-0.5-1.1l0,0
		c-0.1-0.1-0.3-0.3-0.3-0.3c-0.2,0-0.4-0.1-0.6-0.1c0,0-0.2-0.2-0.3-0.3c0,0,0,0,0.1-0.1c-0.1,0.1-0.4-0.3-0.5-0.4
		c-0.5-0.4-0.4,0-0.6,0c0,0-0.2-0.2-0.4-0.3c0,0.2-0.2,0-0.4,0c0-0.6,0.8-0.4,0.5-1.2c0,0-0.3-0.4-0.3-0.4c0,0,0,0,0.1-0.1
		c-0.2-0.2-0.5-0.5-0.4-0.5c-0.1-0.4-0.1-0.8,0.5-0.5c0.2,0.1,0.3,0.1,0.4,0c-0.1-0.1-0.1-0.1-0.2-0.2c0.2,0.2,0,0,0.2,0.1
		c0.1,0.1,0.1,0.1,0.2,0.2c0.1,0.1,0.1,0.1,0.2,0.1c0.1,0.1,0.1,0.1,0.2,0.2c-0.1-0.2,0.2,0,0-0.2c0.1,0.1,0.1,0.1,0.2,0.2
		c-0.1-0.1,0.2,0.1,0-0.2c0.1,0.1,0.1,0.1,0.2,0.2c-0.1-0.1-0.2-0.2-0.2-0.2c0.1-0.1,0-0.2,0-0.2c0.1-0.1,0.3-0.1,0.4,0.1
		c-0.1-0.2,0.3,0.2,0.2,0c0.3,0.3,0.6,0.7,0.9,0.9c0.3,0.2,1.5,1.2,2.2,1.8c0.3-4.2,0.6-6.5,1-6.5c0.3,0,0.7,1.4,1.2,4.4
		c0.3,1.6,0.5,3.5,0.7,5.6c0.2,0.2,0.3,0.2,0.5,0.2c0.2,0.2,0.7,0.7,0.9,0.9c0,0,1.2,1.3,1.2,1.5c0.1,0.4,0,0.7-0.5,0.5
		c-0.1-0.1-0.4-0.3-0.5-0.4c-0.7-0.3-1-0.2-1.3-0.2c0.1,0.9,0.2,1.8,0.3,2.8c0.5,0,1,0.2,1.5-0.3c0.1,0,0-0.5,0.1-0.5
		c0,0,0.1,0,0.1,0c0-0.3,0-0.6,0-0.6c0.4-0.3,0.9-0.6,1.2,0c0.1,0.2,0.3,0.3,0.5,0.3c0-0.2,0-0.2,0-0.3c0,0.3,0.1,0,0.1,0.2
		c0,0.2,0,0.2,0,0.3c0,0.2,0,0.2,0.1,0.2c0,0.2,0,0.2,0,0.3c0.1-0.2,0.2,0.2,0.3-0.2c0,0.2,0,0.2,0,0.3c0-0.2,0.1,0.2,0.2-0.2
		c0,0.2,0,0.2,0,0.3c0-0.2,0-0.3,0-0.3c0.1,0,0.2-0.2,0.2-0.2c0.1,0,0.4,0.2,0.4,0.3c0.1-0.2,0.1,0.3,0.2,0.2c0,0.5-0.1,1,0,1.3
		c0.2,0.5,0.6,2.9,0.5,3.4c0,0.3-0.3,1.3-0.4,1.6c0,0,0,0.1-0.1,0.3c0.3,0,0.5,0.1,0.7,0.4c0.2,0.2,0.4,0.4,0.6,0.4
		c0-0.2,0-0.2,0-0.3c0,0.3,0.1,0,0.2,0.2c0,0.2,0,0.2,0,0.3c0,0.2,0,0.2,0.1,0.2c0,0.2,0,0.2,0,0.3c0.2-0.1,0.3,0.2,0.4-0.1
		c0,0.2,0,0.2,0,0.3c0.1-0.2,0.2,0.2,0.3-0.1c0,0.2,0,0.2,0,0.3c0-0.2,0-0.3,0.1-0.3c0.2,0,0.3-0.1,0.3-0.1c0.2,0,0.6,0.2,0.6,0.4
		c0.2-0.1,0.2,0.3,0.3,0.2c-0.1,0.5-0.3,0.9-0.2,1.3c0.2,0.5,0.5,3,0.2,3.4c-0.1,0.3-0.7,1.2-0.8,1.5c-0.1,0-0.4,1.2-0.5,1.9
		c0,0,0,0-0.1,0c0,0,0,0.1,0,0.2c0.1-0.2,0.3,0.1,0.5-0.2c0,0.2,0,0.2,0,0.3c0.1-0.2,0.3,0.1,0.3-0.2c0,0.2,0,0.2,0,0.3
		c0-0.2,0-0.3,0-0.3c0.2,0,0.3-0.2,0.3-0.2c0.2,0,0.7,0.1,0.7,0.2c0.1-0.2,0.3,0.3,0.4,0.1c0.1,0.5,0,1,0.1,1.3
		c0.4,0.4,1.4,2.7,1.2,3.3c0,0.3-0.4,1.3-0.4,1.7c-0.1,0-0.1,1.1-0.1,1.8c0.1,0,0.2,0.1,0.2,0.1c0.2-0.2,0.3,0.3,0.5,0.1
		c0.1,0.5-0.1,1,0.2,1.3c0.5,0.4,1.7,2.7,1.5,3.2c-0.1,0.3-0.5,1.4-0.6,1.7c-0.1,0-0.2,1.3-0.1,2c-0.1,0-0.2,0-0.2,0.2
		c0.1,0.6,0.6,0.6,0.8,0.7c0.1,0.1,0.1,0.3,0.1,0.5c0.1,0,0.2,0.1,0.3-0.1c0,0.2,0,0.2,0,0.3c0-0.2,0-0.3,0.1-0.3
		c0.3,0,0.4-0.1,0.4-0.1c0.3,0,1,0.2,1,0.4c0.2-0.2,0.3,0.3,0.5,0.2c0,0.5-0.3,1-0.1,1.3c0.4,0.5,1.3,2.9,1,3.4
		c-0.1,0.3-0.8,1.2-1,1.6c-0.1,0-0.2,0.4-0.3,0.8c0.1,0,0.2,0,0.3-0.1c0,0.2,0,0.2,0,0.3c0.2-0.2,0.4,0.2,0.6-0.1c0,0.2,0,0.2,0,0.3
		c0-0.2,0-0.3,0.2-0.3c0.4,0,0.6-0.1,0.6-0.1c0.4,0,1.3,0.2,1.3,0.4c0.3-0.2,0.4,0.3,0.7,0.2c0,0.5-0.3,1,0,1.3
		c0.6,0.5,1.8,2.9,1.4,3.4c-0.2,0.3-1.1,1.2-1.2,1.6c-0.1,0-0.4,0.6-0.5,1.2c0.4,0,0.5-0.2,0.5-0.2c0.4,0,1.3,0.1,1.3,0.2
		c0.3-0.2,0.4,0.3,0.7,0.1c0,0.5-0.2,1,0.1,1.3c0.6,0.4,2,2.8,1.6,3.3c-0.1,0.3-0.9,1.3-1,1.7c-0.1,0-0.4,1-0.4,1.6
		c0.2,0,0.4,0.3,0.6,0.2c0,0.4-0.1,0.7-0.1,1c0.1,0,0.1,0,0.2,0.1c0.1,0.1,0,0.3,0.1,0.4c0.6,0.7,1.7,2.7,1.3,3.2
		c-0.1,0.1-0.3,0.4-0.5,0.6c0.3,0,0.5-0.1,0.5-0.1c0.5,0,1.4,0.2,1.4,0.3c0.3-0.2,0.5,0.3,0.8,0.2c0,0.5-0.3,1,0,1.3
		c0.6,0.5,2,2.9,1.6,3.4c-0.2,0.3-1.1,1.3-1.3,1.6c-0.2,0-0.6,1.3-0.6,1.9c-0.2,0-0.3,0-0.3,0.2c0,0.1,0,0.1,0,0.1
		c0.1,0.1,0.3,0.3,0.4,0.5c0.2,0.1,0.5,0.1,0.6,0.2c0.1,0.2,0.1,0.5,0,0.7c0.4,0.7,0.7,1.4,0.4,1.7c-0.1,0.1-0.3,0.4-0.6,0.7
		c0.1,0.1,0.2,0.2,0.4,0.2c0,0.5-0.4,0.9-0.1,1.3c0.5,0.5,1.4,3.1,1,3.5c-0.2,0.3-1.1,1.2-1.2,1.5c-0.1,0-0.7,1.2-0.7,1.9
		c-0.1,0-0.3,0-0.3,0.1c-0.1,0.6,0.6,0.7,0.9,0.9c0.1,0.3-0.1,1-0.3,1.3c0,0-0.1,0.4-0.3,0.8c0.1,0,0.3,0.1,0.4-0.1
		c0,0.2,0,0.2,0,0.3c0-0.2,0-0.3,0.1-0.3c0.4,0,0.6-0.2,0.6-0.2c0.4,0,1.2,0.2,1.2,0.3c0.3-0.2,0.4,0.3,0.7,0.2c0,0.5-0.3,1,0,1.3
		c0.4,0.3,1,1.4,1.3,2.3c0.1,0.1,0.3,0.1,0.4,0.2c0.4,0.2,0.8,0.3,1.3,0.3c0-0.2,0-0.2,0-0.3c0,0.3,0.3,0,0.4,0.2c0,0.2,0,0.2,0,0.3
		c0,0.2,0.1,0.2,0.3,0.2c0,0.2,0,0.2,0,0.3c0.3-0.2,0.5,0.2,0.8-0.2c0,0.2,0,0.2,0,0.3c0.1-0.2,0.4,0.2,0.5-0.2c0,0.2,0,0.2,0,0.3
		c0-0.2,0-0.3,0.1-0.3c0.4,0,0.5-0.2,0.5-0.2c0.4,0,1.2,0.2,1.2,0.3c0.3-0.2,0.4,0.3,0.7,0.2c0,0.5-0.3,1,0,1.3
		c0.5,0.5,1.7,2.9,1.3,3.4c-0.1,0.3-0.9,1.3-1.1,1.6c-0.1,0-0.5,1.3-0.5,1.9c-0.1,0-0.3,0-0.3,0.2c0,0.6,0.7,0.6,0.9,0.8
		c0.1,0.2,0,0.6-0.1,1c0,0,0,0,0,0c0.1-0.2,0.3,0.3,0.5,0.1c0.1,0.5,0,1,0.2,1.3c0.4,0.4,1.6,2.7,1.4,3.2c0,0.3-0.4,1.4-0.4,1.7
		c-0.1,0-0.1,1.3,0,2c-0.1,0-0.2,0-0.1,0.2c0.1,0.6,0.5,0.6,0.7,0.7c0.1,0.3,0.1,0.9,0.1,1.3c0,0,0,0.3,0,0.7
		c0.1,0.1,0.2,0.2,0.3,0.1c0,0.5-0.2,1,0,1.3c0.4,0.5,1.2,2.9,0.9,3.4c-0.1,0.3-0.6,1.3-0.7,1.6c-0.1,0-0.3,0.8-0.3,1.5
		c0.2,0.1,0.4,0.1,0.4,0.2c0.3-0.2,0.4,0.3,0.7,0.2c0,0.5-0.3,1,0,1.3c0.6,0.5,1.8,2.9,1.3,3.4c-0.2,0.3-1,1.2-1.2,1.6
		c-0.1,0-0.6,1.3-0.6,1.9c-0.1,0-0.3,0-0.3,0.2c0,0.6,0.7,0.7,1,0.8c0,0.1,0,0.2,0,0.3c0.1,0,0.2,0,0.3,0c0-0.2,0-0.2,0-0.3
		c0,0.3,0.4,0,0.7,0.2c0,0.2,0,0.2,0,0.3c0,0.2,0.2,0.2,0.4,0.2c0,0.2,0,0.2,0,0.3c0.4-0.2,0.9,0.2,1.3-0.1c0,0.2,0,0.2,0,0.3
		c0.2-0.2,0.7,0.2,0.9-0.1c0,0.2,0,0.2,0,0.3c0-0.2,0-0.3,0.2-0.3c0.7,0,0.9-0.1,0.9-0.1c0.7,0,2,0.2,2,0.4c0.4-0.2,0.7,0.3,1.1,0.2
		c0,0.5-0.5,1,0,1.3C200.5,169.3,202.4,171.7,201.7,172.2z"/>
	<path class="st0" d="M174.4,174.4c-0.1,0-0.2,0.4-0.4,0.8c0.2-0.1,0.4-0.1,0.6-0.1C174.9,174.9,174.2,174.5,174.4,174.4
		c0.5-0.1,1.1,0,1.6,0l0-0.3c-0.5,0-0.9,0-1.4,0C174.5,174.2,174.4,174.3,174.4,174.4z"/>
	<path class="st0" d="M174,167.9c0.2-0.1,0.3,0.2,0.6,0.2c-0.2,0-0.2-0.3-0.2-0.5c-0.4,0.1-0.7,0-1.1-0.1
		C173.6,167.6,174,167.8,174,167.9z"/>
	<path class="st0" d="M175.5,172.8c0,0.1-0.1,0.1-0.2,0.2c0.4,0,0.8,0,1.1,0.1c-0.2,0-0.2-0.2-0.2-0.3c-0.1,0-0.2,0-0.3,0
		C175.8,172.8,175.6,172.8,175.5,172.8C175.5,172.8,175.5,172.8,175.5,172.8z"/>
	<path class="st0" d="M156.3,71.3c0,0.1,0,0.1,0,0.2c0.2,0.4,0.6,1.9,0.7,2.8c0.6-0.1,1.7,0.1,1.5-1.1l-0.2,0c0-0.2,0-0.5,0-0.5
		c-0.4-0.2-1-0.4-1.4-0.5c0,0,0-0.3,0-0.5c0.1,0,0.2,0,0.3,0c-0.2,0-0.3-0.1-0.4-0.3C156.8,71.4,156.6,71.4,156.3,71.3
		C156.4,71.3,156.3,71.3,156.3,71.3z"/>
	<path class="st0" d="M157.4,87.2c-0.1,0-0.1-0.1-0.1-0.3c0,0-0.1,0-0.1,0c0-0.1-0.1-0.1-0.1-0.2c-0.5,0.1-0.9-0.1-1.4-0.2
		c0.4-0.1,0.7-0.1,1.1-0.2c-0.3-0.4-0.7-0.6-1.2-0.6c0,0.5,0,1,0.1,1.5c0.3,0,0.6,0.1,0.9,0.5c0.2,0.2,0.4,0.4,0.7,0.4
		c0-0.2,0-0.2,0-0.3c0,0.3,0.2,0,0.2,0.2c0,0.2,0,0.2,0,0.3c0,0.2,0.1,0.2,0.1,0.2c0,0.2,0,0.2,0,0.3c0.2-0.1,0.3,0.2,0.5-0.1
		c0,0.2,0,0.2,0,0.3c0.1-0.2,0.2,0.2,0.3-0.1c0,0.2,0,0.2,0,0.3c0-0.2,0-0.3,0.1-0.3c0.2,0,0.3-0.1,0.3-0.1c0.2,0,0.7,0.2,0.7,0.4
		c0.2-0.1,0.2,0.3,0.4,0.2c-0.1,0.5-0.3,0.9-0.1,1.3c0.1,0.2,0.2,0.6,0.3,1.1c0.2,0,0.4,0,0.7,0l0-0.3l-0.3,0c0-0.2,0-0.5,0-0.6
		c0.7-0.2,2.2-0.1,1.9-1.2l-0.3,0c0-0.2,0-0.5,0-0.5c-0.6-0.1-1.3-0.2-1.8-0.4c0,0,0-0.3,0-0.5c0.1,0,0.3,0,0.4,0
		c-0.4,0-0.6-0.4-0.7-0.6c0,0-0.1,0-0.1-0.1c-0.4-0.1-0.7-0.2-1.1-0.3C158.1,87.2,157.7,87.3,157.4,87.2z"/>
	<path class="st0" d="M147.4,107.8c0.3,0,0.4-0.1,0.4-0.1c0.1,0,0.3,0,0.5,0c0-0.6,0-1.2,0-1.9c-0.5,0.1-1,0.2-1.5,0.2
		C147.1,106.6,147.4,107.3,147.4,107.8z"/>
	<path class="st0" d="M164,138.1l-0.4,0c0-0.2,0-0.5,0-0.5c-0.8-0.1-1.8-0.2-2.5-0.3c0,0,0-0.3,0-0.5c0.2,0,0.4,0,0.6,0
		c-0.6,0-0.8-0.4-1-0.6c-0.2-0.2-0.4-0.2-0.6-0.3c0,0-0.1,0.1-0.1,0.2c-0.1,0-0.5,1.2-0.7,1.8c-0.1,0-0.1,0-0.1,0.1
		c-0.2,0.6,0.1,0.7,0.1,0.9c0,0.3-0.2,0.7-0.3,1c0.1,0,0.2,0.1,0.4,0.3c0.2,0.1,0.4,0.3,0.6,0.3c0,0,0,0,0,0c0-0.1,0-0.2,0-0.3
		c0,0.3,0.1,0,0.2,0.1c0,0.1,0,0.1,0,0.2c0.6,0,1.2-0.1,1.9-0.1l0-0.3l-0.4,0c0-0.2,0-0.5,0-0.6C162.3,139.2,164.4,139.2,164,138.1z
		"/>
	<path class="st0" d="M154.8,61c-0.2-0.1-0.3,0-0.5,0c0,0.2,0,0.4,0,0.5c0.2,0,0.4-0.1,0.6-0.2C154.9,61.2,154.8,61.1,154.8,61z"/>
	<path class="st0" d="M154.4,63.6C154.4,63.6,154.4,63.6,154.4,63.6c0,0.1,0.1,0.1,0.1,0.1C154.5,63.6,154.5,63.6,154.4,63.6z"/>
	<path class="st0" d="M147.4,39.7C147.4,39.6,147.4,39.7,147.4,39.7c0,0,0-0.1,0-0.1C147.4,39.6,147.4,39.6,147.4,39.7z"/>
	<path class="st0" d="M157.1,82.4l-0.1,0c0,0,0,0.1,0,0.1c-0.1,0.1-0.1,0.1-0.2,0.2c0.1,0,0.2,0,0.4,0L157.1,82.4z"/>
	<path class="st0" d="M129.8,147.7l-0.2,0c0,0.2,0,0.2,0,0.3c0.1,0,0.1,0,0.2,0L129.8,147.7z"/>
	<path class="st0" d="M138.5,158C138.5,158,138.5,158,138.5,158c0.3-0.1,0.6,0.2,0.9-0.1c0,0.2,0,0.2,0,0.3c0.2-0.2,0.5,0.1,0.6-0.2
		c0,0.2,0,0.2,0,0.3c0-0.2,0-0.3,0.1-0.3c0.5,0,0.6-0.2,0.6-0.2c0.5,0,1.4,0.1,1.4,0.3c0.3-0.2,0.5,0.3,0.8,0.1c0,0.5-0.3,1,0,1.3
		c0.1,0.1,0.2,0.2,0.3,0.4c0.3,0,0.6-0.1,0.9-0.1l0-0.3l-0.2,0c0-0.2-0.1-0.5-0.1-0.6c0.4-0.2,1.4-0.2,1-1.3l-0.2,0
		c0-0.2-0.1-0.5-0.1-0.5c-0.4-0.1-0.8-0.2-1.2-0.3c0,0,0-0.3-0.1-0.5c0.1,0,0.2,0,0.3,0c-0.3,0-0.4-0.4-0.5-0.6
		c-0.3-0.6-0.9-0.2-1.4-0.3c-0.1,0-0.1-0.3-0.1-0.5c-0.3,0.2-0.6-0.1-1-0.2c0.6-0.3,1.2-0.3,1.8-0.4c0-0.3-0.1-0.4-0.2-0.6
		c-0.3-0.1-0.6,0-0.8,0c0.1-0.2,0.2-0.2,0.2-0.2c0-0.1,0-0.2-0.1-0.3c-1.3-0.3-2.6-0.4-3.9-0.5c0,0.1,0,0.3,0.1,0.4
		c0.7,0.5,2.2,2.9,1.7,3.4C139.6,156.8,138.8,157.6,138.5,158z"/>
	<path class="st0" d="M180.4,139.2c0.5-0.1,0.9-0.2,1.4-0.5c-0.2-0.1-0.5-0.1-0.7-0.2C180.8,138.8,180.6,139,180.4,139.2z"/>
	<path class="st0" d="M153.5,45c-0.1,0-0.3,0.1-0.3-0.2c0-0.1,0-0.2-0.1-0.3c0.1,1.1,0.2,2.2,0.3,3.4c0.2,0.2,0.3,0.3,0.5,0.4l0-0.2
		l-0.1,0c0-0.2,0.1-0.5,0.1-0.6c0.4-0.1,1.1,0.1,1.1-1l-0.1,0c0-0.2,0.1-0.5,0.1-0.5c-0.3-0.2-0.6-0.4-0.8-0.6v0
		C153.9,45.3,153.7,45.2,153.5,45z"/>
	<path class="st0" d="M156.1,56.4c0-0.2-0.1-0.5-0.1-0.5c-0.3-0.1-0.7-0.2-1.1-0.4c0,0,0-0.3-0.1-0.5c0.1,0,0.2,0,0.2,0
		c-0.1,0-0.2-0.1-0.3-0.3c-0.2,0.1-0.3,0.3-0.4,0.9l0.1,0c0,0.2,0,0.5,0,0.5c0.2,0.2,0.4,0.4,0.6,0.5c0,0,0,0.3,0,0.5
		c-0.1,0-0.1,0-0.2,0c0.2,0,0.2,0.5,0.2,0.7c0.1,0.4,0.2,0.4,0.4,0.5l0-0.1l-0.2,0c0-0.2-0.1-0.5-0.1-0.6c0.4-0.2,1.3-0.1,1-1.2
		L156.1,56.4z"/>
</g>
</svg>
