<?xml version="1.0" encoding="utf-8"?>
<!-- Generator: Adobe Illustrator 19.1.0, SVG Export Plug-In . SVG Version: 6.00 Build 0)  -->
<svg version="1.1" id="Layer_1" xmlns="http://www.w3.org/2000/svg" xmlns:xlink="http://www.w3.org/1999/xlink" x="0px" y="0px"
	 viewBox="0 0 300 254.2" style="enable-background:new 0 0 300 254.2;" xml:space="preserve">
<style type="text/css">
	.st0{fill:#42AA19;}
	.st1{fill:#BD202E;}
	.st2{fill:#F05A29;}
	.st3{fill:#F7EA31;}
	.st4{fill:#016938;}
	.st5{fill:#A0AE39;}
	.st6{fill:#ECD01B;}
	.st7{fill:#FFF4B7;}
	.st8{fill:#FFFFFF;}
	.st9{fill:#E199C1;}
	.st10{fill:#492F8D;}
	.st11{fill:#C82127;}
</style>
<path class="st0" d="M225,0H75L0,127.1l75,127.1h150l75-127.1L225,0z M184.1,46.2c6.2,1.1,11.8,3.8,16.3,6.6
	c4.5,2.9,9.8,6.4,13.1,12.2l-3.9,6.1L198,61.9c-1.2-0.9-3.1-2.2-4.5-2.9l-13.3-6.8L184.1,46.2z M145.6,171.1
	c0,0-15.8,16.8-23.6,27.9c-7.8,11.1-7.3,24.9-10.6,30c-3.3,5.2-14.6-3.4-14.6-3.4l-9.7-6.2c0,0-12.5-6.7-9.2-11.9
	s16.1-10.5,22.8-22.2c6.8-11.7,15.4-33.1,15.4-33.1l32.5-50.7c5,3.6,10,7,14.5,9.8c4.5,2.9,9.6,5.9,15,9L145.6,171.1z M226.1,137.6
	c-0.6,0.9-1.5,1.5-2.6,1.8c-0.8,0.2-1.7,0.1-2.5-0.2c-0.4-0.2-36-15.7-57.1-29.1c-21-13.5-50.1-39.4-50.3-39.6
	c-1.4-1.3-1.8-3.6-0.7-5.2l20.2-31.5c0.6-0.9,1.5-1.5,2.6-1.8c0.8-0.2,1.7-0.1,2.5,0.2l54.8,28c1.2,0.6,3.2,1.9,4.3,2.7l48.3,38
	c1.5,1.3,1.8,3.6,0.8,5.3L226.1,137.6z"/>
</svg>
