<?xml version="1.0" encoding="utf-8"?>
<!-- Generator: Adobe Illustrator 19.1.0, SVG Export Plug-In . SVG Version: 6.00 Build 0)  -->
<svg version="1.1" id="Layer_1" xmlns="http://www.w3.org/2000/svg" xmlns:xlink="http://www.w3.org/1999/xlink" x="0px" y="0px"
	 viewBox="0 0 300 254.2" style="enable-background:new 0 0 300 254.2;" xml:space="preserve">
<style type="text/css">
	.st0{fill:#42AA19;}
	.st1{fill:#BD202E;}
	.st2{fill:#F05A29;}
	.st3{fill:#F7EA31;}
	.st4{fill:#016938;}
	.st5{fill:#A0AE39;}
	.st6{fill:#ECD01B;}
	.st7{fill:#FFF4B7;}
	.st8{fill:#FFFFFF;}
	.st9{fill:#E199C1;}
	.st10{fill:#492F8D;}
	.st11{fill:#C82127;}
</style>
<path class="st0" d="M225,0H75L0,127.1l75,127.1h150l75-127.1L225,0z M227.9,212.8c-0.4-0.4-0.5-0.4,0-1c0.5-0.5,0.6,0.2,0.4,0.5
	C228.1,212.7,228.3,213.2,227.9,212.8z M230.3,211.9c-0.1,0.5-0.4,1.1-0.5,2c-0.1,0.9-0.4,1.7-0.4,2.1c0,0.4-0.3,0.6-0.3,1.4
	c0,0.8-0.8,2.8-0.9,1.1c-0.1-1.7-0.2-2.6-0.2-3.2c0-0.6,0.3-1.2,0.6-1.6c0.3-0.4,0.4-1.2,0.4-1.5c-0.1-0.3-0.1-1.5,0.3-2
	c0.4-0.5,0.4-1,0.6-1.4c0.2-0.5,0.5-0.1,0.5,0.6C230.6,210.1,230.4,211.4,230.3,211.9z M230.6,204.9c-0.1,0.5-0.1,0.6-0.4,1
	c-0.4,0.4-0.9,0.1-0.6-0.7c0.3-0.8,0.3-1.2,0.3-1.8c0-0.6,0.1-1.4,0.4-1.5c0.3-0.1,0.5,0,0.5,0.6
	C230.8,203.2,230.7,204.4,230.6,204.9z M234.8,197c0.1,0.5-0.8,0.7-0.9-0.1c-0.1-0.8-1.1-1.8-1-1c0.1,0.8-0.2,1.3,0.1,1.7
	c0.4,0.4,0.7,0.9,0.2,1.3c-0.5,0.4-0.5,1-1,1.1c-0.5,0.1-1.9,0.8-1.6-0.2c0.3-1,0.3-1.7,0.3-2.5c0-0.7,0-1.8,0-2.3
	c0-0.5,0.1-0.8,0.6-1c0.5-0.3,0.6-0.5,1.2,0c0.5,0.4,0.7,0.5,1.2,0.4s0.9,0.3,0.8,1C234.8,196,234.8,196.5,234.8,197z M235.4,191.7
	c-0.3,0.5,0,1.7-0.4,1.3c-0.5-0.4-1.3-0.1-1.3-0.6c0-0.6-0.8-1.3-0.5-1.6c0.3-0.3,0.5-0.7,1.5-0.1
	C235.4,191.1,235.7,191.2,235.4,191.7z M238.5,184.1c-0.4,0.4-0.6,1.7-1.2,2.2c-0.6,0.5-0.8,0.8-1,1.4c-0.2,0.5-0.8,1.7-1,0.9
	c-0.2-0.8-0.8-1.5-0.7-2.3c0.1-0.7,0.4-0.9,1-1.4c0.6-0.5,0.4-1.2,1.1-1.6c0.7-0.3,0.9-0.9,1.7-0.3
	C239.1,183.6,239,183.5,238.5,184.1z M239.2,180.7c-0.1,0.5-0.7,1.4-1,0.8c-0.3-0.5-0.5-1.5-0.2-1.4c0.3,0.2,0.4-1,0-0.8
	s-0.9,0.4-1.5-0.1c-0.6-0.4-1-1.1-0.3-1c0.7,0.1,1.5,0.3,1.6-0.1c0.1-0.4,0.3-0.4,0.8-0.5c0.5-0.1,0.8-0.5,0.2-0.6
	c-0.6-0.1-0.8-0.8-0.1-1c0.6-0.2,1.1-0.3,1.1,0.2c0,0.6,0.1,1.8,0.1,2.4S239.3,180.2,239.2,180.7z M249.6,164
	c-0.6,0.3-1.4,0.4-1.8,0.7c-0.4,0.3-0.5,0.1-0.5-0.4c0-0.5-0.5-0.3-0.6,0c-0.1,0.3-0.6,0.5-0.9,0.1c-0.3-0.4-1.3-0.4-0.6,0.3
	c0.7,0.7,0.9,1,1.4,0.9c0.5-0.1,0.3,0.5-0.3,0.8c-0.6,0.3-0.5,0.9-1,0.8c-0.5-0.1-0.5,0.1-0.4,0.3c0,0.3-0.5,0.6-0.9,0.4
	c-0.4-0.2-0.4-0.8-0.8-0.6c-0.5,0.2-0.7,0-0.8-0.4s-0.5-0.5-0.8-1.1c-0.3-0.6-0.9-0.8-0.6-0.3c0.3,0.5,0.3,1.1-0.3,0.5
	c-0.6-0.6-1.1-0.2-0.8,0.3c0.3,0.5,0.9,1,1.5,1c0.6,0,0.7,0.4,0.5,0.7c-0.3,0.3-0.5,0.1-1,0.1c-0.5,0.1-1.3,0.1-1.4-0.5
	c-0.1-0.6-0.4-0.5-1.2-0.8c-0.8-0.3-0.8,0.5-0.1,0.7c0.6,0.3,0.8,0.6,1,0.9c0.2,0.3,0.3,0.9,0,1.3c-0.3,0.4-0.1,0.9,0.5,0.9
	c0.6,0,1.2-0.1,0.8-0.4c-0.3-0.3-1.1-1.2,0.2-1c1.3,0.1,1.4,0.6,1.9,0.8c0.5,0.1,0.8,0.6,0.3,1.1c-0.5,0.5-1,1.5-1.5,1.9
	c-0.5,0.4-1.1,1-1.5,0.7c-0.4-0.3-0.7-0.9-0.7-1.3c0-0.5,0-1-0.5-1.1c-0.5-0.1-0.4,0.1-0.3,0.5c0.1,0.5-0.4,1.4,0,1.7
	c0.3,0.4,0.3,0.9-0.3,0.7c-0.6-0.2-1.7-0.4-2.1-0.9c-0.4-0.5-0.7-1-1.2-1.2c-0.5-0.2-0.5-0.1-0.1,0.6c0.4,0.7,0.7,1.5,1.1,1.7
	c0.4,0.2,0.8,0.3,1.2,0.4c0.5,0.1,1.3,0.5,1,1c-0.3,0.5-0.8,0.9-1.2,0.9c-0.4,0-0.7,0.5-0.2,0.5c0.5,0.1,0.7,0.4-0.1,0.6
	s-1.2-0.1-1.5,0.3c-0.3,0.4-0.4,0.8-0.1,1c0.4,0.2,1,1,0.7,1.2c-0.3,0.2,0.3,0.4,0.8,0.3c0.4-0.2,0.8-0.1,1,0.3
	c0.1,0.4,0.1,0.7-0.3,0.8c-0.5,0.1-0.4-0.1-0.6-0.3c-0.3-0.2-0.3,0-0.4,0.4s-0.5,0.5-0.9,0.6c-0.4,0.1-1,0.5-1,0
	c-0.1-0.5-0.5-1.3-0.9-0.8s-0.2,1-0.6,1c-0.5,0.1-0.4,0.3,0.1,0.4c0.5,0.1,1,0.1,0.7,0.4c-0.3,0.3,0.2,0.3,0.7,0.3
	c0.5,0,0.4,0.3,0.9,0c0.5-0.3,1,0.2,0.5,0.6c-0.5,0.4-0.4,1.2-1.2,1c-0.8-0.1-1.2,0.4-1.2,1c-0.1,0.6,0.4,1.6,0.8,1.9
	c0.4,0.3,0.5,0.6,0.1,1c-0.4,0.4-1.2-0.1-1.3,0.5c-0.1,0.6-0.2,1.1-0.6,1.2c-0.4,0.1-0.5,0.6,0,0.6c0.5,0,0.8,0,0.8,0.3
	c0,0.3-0.2,0.5-0.8,0.6c-0.6,0.1-0.9,0.1-0.6,0.5c0.3,0.3-0.1,0.9-0.6,0.8c-0.5-0.1-1.2-0.4-1,0.3c0.3,0.6,0.7,1.2,0.6,2.4
	c-0.1,1.2-0.1,2,0,2.5c0.1,0.5-0.7,0.1-0.8,0.5c-0.1,0.4-0.2,1-0.4,1.4c-0.3,0.5-0.5,0.7-1,0.7s-1.2-0.3-1.5-0.6
	c-0.3-0.3-1.1,0.3-0.5,0.6c0.6,0.3,1.4,0.4,1.6,0.9c0.3,0.5,0.5,0.7,1,0.7c0.5,0,0.6,0.4,0.5,0.9c-0.1,0.5-0.8,0.7-0.8,0.3
	c-0.1-0.4-0.5-0.1-0.8-0.4c-0.4-0.3-1.3-0.4-0.9,0c0.4,0.4,0.8,0.7,1.1,1.2c0.3,0.4-0.2,0.6-0.7,0.2c-0.5-0.4-0.9-0.5-1.4-0.6
	c-0.5-0.1-0.1,0.5,0.4,0.8c0.5,0.4,1.2,1.2,1.6,1.1c0.5-0.1,0.9,0.4,0.4,0.8c-0.5,0.5-0.6,1.2-1.2,0.8c-0.5-0.4-1.1-0.8-1.6-0.7
	c-0.5,0.1-0.7,0.7-0.2,0.6c0.5-0.1,1,0.6,1.5,0.8c0.5,0.2,1,0.1,1.5-0.3c0.6-0.4,1-0.3,1,0.3c0,0.6-0.1,0.8-0.7,1.1
	c-0.6,0.3-0.4,1-1,1.4c-0.6,0.5-0.8,1-0.4,1.4c0.3,0.4,0.4,0.9-0.1,0.9c-0.5,0-1,0.1-1,0.7c0.1,0.6,0.5,0.9,1,1.2
	c0.5,0.3,0.7,1,0.1,0.7c-0.6-0.3-0.3,0.3,0.1,1c0.4,0.7,0.3,1,0.3,1.5c0,0.5-0.3,0.9-0.8,1c-0.5,0.1-0.7-0.4-1.2,0.1
	c-0.4,0.6-1,0.6-1.6,0.6c-0.6,0-1.3,0.4-1.7,0.8c-0.4,0.4-1.4,0.5-1.6,0.3c-0.3-0.2-0.5-0.4-1-0.2c-0.5,0.2-1,0.3-1-0.4
	c0-0.7-0.4-1-1-0.8c-0.6,0.2-1.4,0.6-1.7,0.1c-0.3-0.4-0.8-0.6-1.4-0.6c-0.5,0-1-0.4-1.1-1c-0.1-0.5,0.1-0.9-0.5-1.2
	c-0.6-0.3-0.8-1-1.2-0.6c-0.4,0.4-1.6-0.4-1.7,0.3c-0.1,0.7,0,1.1-0.5,1.4c-0.5,0.3-0.8,0.3-1.2-0.2c-0.5-0.6-0.9-0.1-0.9,0.6
	c0,0.6-0.2,1.3-0.6,1.7c-0.3,0.4-0.4,0.8-0.1,1.3c0.3,0.4,0.2,1,0.2,1.5c0,0.5,0.4,0.9,0.3,2.3c-0.1,1.4-0.6,2.3-0.5,3
	c0.1,0.8-0.5,1.4-0.5,2c0,0.6-0.6,1.2-0.8,1.9c-0.1,0.7-0.7,1.4-1,1.9c-0.3,0.5-1,0.9-1.4,1.3c-0.4,0.4-1.2,0.4-1.7,0.3
	c-0.5-0.1-1,0.2-1.5-0.6s0.2-1.6-0.6-2.6c-0.8-1-1-1.8-1.2-2.6c-0.2-0.8-0.3-1.5-0.3-1.5l-102-5c0,0,0-1.2-0.4-1.9
	c-0.4-0.8-0.7-1.3-0.7-1.9c0-0.6-0.1-1.6-0.4-2.4c-0.3-0.8-0.3-0.8-0.5-1.9c-0.2-1.2-0.7-1.5-0.4-2.3c0.3-0.8,0.8-2.1,0.1-2.8
	c-0.7-0.6-0.9-1.4-1.4-2.1c-0.5-0.7-0.8-1.3-0.9-2c0-0.7-0.6-1.2-0.9-1.9c-0.3-0.7-1.3-1-1.2-1.6c0.1-0.6,0.1-1.2-0.5-1.9
	c-0.7-0.6-0.9-0.6-0.9-2.4c0-1.7,0.4-3.6,0.2-3.9c-0.2-0.4-0.3-0.9,0.1-1.5c0.4-0.6,0.8-1.4,0.8-2.4c0-1,0.5-1.6,0.5-2.3
	c0-0.8,0.2-1.6,0.3-2.2c0.1-0.6,0.7-1.2,0.5-1.8c-0.2-0.6-0.2-0.9-0.3-1.7c-0.1-0.8-0.2-0.9-0.6-1.3c-0.4-0.4-0.9-0.1-1.2-0.6
	c-0.3-0.6-0.4-1.3-0.5-1.7c-0.1-0.5-0.7-0.9-0.6-1.7c0.1-0.8,0.2-2.5,0.1-3.2c-0.1-0.7-0.1-1.4,0-1.9c0.1-0.5-0.5-1.1,0-1.9
	c0.5-0.8,0.2-1.4,0.7-1.9c0.4-0.5,0.5-2,0.9-2.7c0.4-0.6,0.5-1.4,1.1-2c0.6-0.7,0.4-1.1,0.4-1.6c0-0.5,0.4-0.3,0.6-0.8
	c0.2-0.5,0.1-1.6,0-2.3s0.4-0.7,0.7-1.4c0.3-0.7,1.2-1.1,1.7-1.8c0.6-0.7,0.5-1.3,1.3-1.6c0.8-0.3,0.7-0.6,0.7-1
	c0-0.5,0.4-2.1,0.1-2.4c-0.3-0.3-1.2-0.6-1-1.2c0.1-0.6-0.4-0.6-0.8-0.6c-0.5,0-0.7-0.7-0.5-1.2c0.2-0.5-0.4-1-0.1-1.5
	c0.3-0.5-0.6-2.1-0.3-3.2c0.2-1-0.7-1.2-0.8-1.9c-0.1-0.7-1.9-0.6-1.9-1.5c0-1-0.5-1.9-0.9-2.5c-0.4-0.6-0.6-1-0.3-1.5
	c0.3-0.6,0.3-1-0.2-1.6c-0.5-0.6-0.4-1-0.7-2c-0.3-1-0.1-1.9-0.2-2.4c0-0.6-1-1.5-0.9-2.1c0.1-0.6-1-1.3-0.9-2.3
	c0.2-1-0.2-2.9-0.5-3.6c-0.3-0.7-14.6-91.1-14.6-91.1l93.6-0.1c0,0-0.4,0.6-0.7,1.1c-0.3,0.5-1.1,1.4-1.4,1.9
	c-0.3,0.6-0.2,1.7-1,2.2c-0.8,0.5-2.1,0.9-2.6,1.3c-0.4,0.4-0.6,0.8-1.1,1c-0.4,0.3-0.5,0.7-0.6,1.2c-0.1,0.5-0.5,0.8-0.8,0.9
	c-0.3,0.1-0.3,0.7-0.4,0.9c-0.1,0.2-0.2,0.7-0.4,0.8c-0.3,0.1-0.4,0.8-0.4,1.2c0,0.4-0.1,1,0.8,1.2c0.9,0.2,1,0.4,1.6,0.4
	c0.5,0,0.8,0.3,0.8,0.8c0.1,0.5,0.7,0.6,1,1.2c0.4,0.6,1.1,1.2,1.9,1.3c0.8,0.1,1.2,0.3,1.5,1c0.3,0.6,0.7,1.3,1.2,1.5
	c0.6,0.1,0.9,0.1,1,0.5c0.1,0.4,0.8,0.6,1.1,1.2c0.3,0.5,1.1,0.9,1.3,1.2c0.2,0.3,0.6,0.5,1.2,0.4c0.6-0.1,1.3-0.4,1.8-0.4
	c0.5,0,1.3-0.1,1.6,0.1c0.3,0.2,1.3,0.2,1.4,0.7c0.1,0.5,0.3,0.7,0.6,1.2s0.1,1.3,0.6,1.7c0.5,0.4,0.9,1,1.1,1.4
	c0.2,0.4,0.2,1.2,0.5,1.6c0.3,0.4,0.3,0.9,0.7,1.4c0.3,0.5,0.5,0.9,0.8,1.4c0.3,0.5,0.8,0.8,0.9,1.4c0.1,0.6,0.3,1.2,0.6,1.5
	c0.3,0.3,1,1,1.2,1.5c0.1,0.5,0.3,1.1,0.8,1.4s1,0.9,1.3,1.2c0.3,0.3,0.2,1.2,0.9,1.6c0.6,0.4,1.2,0.4,1.7,1.2
	c0.5,0.8,0.7,1.5,0.7,2.1c0.1,0.6,0.1,1.4,0.6,1.7c0.5,0.4,0.6,0.9,0.6,1.2c0,0.3,0.5,0.5,0.8,0.8c0.3,0.3,0.7,0.3,1.2,0.4
	c0.5,0.1,0.8,0.1,1,0.5c0.2,0.4,0.9,0.8,1,1.1c0.1,0.3,1,0.6,1.3,1s0.9,0.8,1.5,0.8c0.6,0.1,1,0.2,1.2,0.5c0.1,0.3,0.4,0.5,0.8,0.7
	c0.5,0.2,0.8,0.4,0.6,1c-0.2,0.6-0.1,1.1,0.5,1.4c0.6,0.3,0.9,0.3,1.2,0.8c0.3,0.6,0.8,0.8,1.4,1.1c0.5,0.3,0.7,0.4,1,1.2
	c0.3,0.8,0.3,1.4,1,1.6c0.7,0.2,1,0.2,1.4,0.1c0.5-0.1,1.1,0.1,1.6,0.4c0.5,0.4,0.5,0.6,1.1,0.7c0.6,0.1,1,0.6,0.8,1
	c-0.2,0.5,0.8,0.8,0.7,1.5c-0.2,0.8-0.1,1.5,0.7,1.8s1.7,0.8,1.6,1.1c-0.1,0.4,0.3,0.8,0.8,1c0.5,0.3,0.5,1.2,0.3,1.7
	c-0.3,0.5,0.1,1.2,0.4,1.7s0.5,1,0.8,1.3c0.3,0.3,0.8,1.2,1.4,1c0.6-0.3,1.1-0.5,1.5,0c0.5,0.5,0.5,1.1,0.3,1.4
	c-0.3,0.3,0.1,0.6,0.1,1c-0.1,0.4,0.4,0.8,0.4,1.4c0,0.6,0.5,1.2,0.9,0.9c0.4-0.3,1.4-1,1.4-0.1c-0.1,0.9,0.7,1,0.7,1.8
	c0,0.8-0.1,1.2,0.7,1.7s0.7,0.8,1.1,1.2c0.4,0.3,0.7,0.8,0.7,1.5c0.1,0.6,0.5,1,0.8,1.3c0.3,0.4,0.5,0.6,0.8,0.6s0.8,0.3,0.7,0.8
	c-0.1,0.5,0.8,0.5,0.9,1.5c0.1,1,0.3,1.7,0.7,1.9c0.4,0.2,0.7,0.8,0.7,1.7c-0.1,0.9,0.5,1.6,0.5,2.2c0,0.6,0.3,1.5,0.7,1.9
	c0.4,0.4,1.1,0.9,0.9,1.9c-0.2,1-0.3,1.6-0.1,2.3c0.2,0.6,0.1,0.7,0.5,1.4c0.3,0.6,0.9,1,0.7,1.3c-0.3,0.3,0.9,0.6,0.7,1.1
	c-0.2,0.5,0.3,1,0.5,1.5c0.2,0.5,1.3,1.3,1.8,1.5c0.5,0.2,1.1,1,2,0.7c0.9-0.3,1.4-0.6,1.7,0.4c0.3,1,1.3,1.3,1.8,1.5
	c0.5,0.1,0.9,0.6,0.5,1.2c-0.4,0.5-0.6,1.6-0.6,2.3c0,0.8,0.4,1.7,0.8,2.4c0.4,0.7,1.2,1.3,1.1,2.1c-0.2,0.8,0.2,2.2,0,2.8
	c-0.2,0.6-0.2,1.8,0.2,2.7c0.3,0.9,1.2,2.1,2,2.6c0.7,0.6,1.5,1.7,2.9,1.9c1.4,0.2,1.9,0.2,2.7,0.9c0.8,0.6,1.3,0.1,2.1,0.7
	c0.8,0.6,1.2,0.6,2,0.6c0.8,0.1,1,0.5,0.5,1c-0.4,0.5-0.2,0.6,0,1.1C250.5,163.4,250.2,163.7,249.6,164z"/>
</svg>
