<?xml version="1.0" encoding="utf-8"?>
<!-- Generator: Adobe Illustrator 19.1.0, SVG Export Plug-In . SVG Version: 6.00 Build 0)  -->
<svg version="1.1" id="Layer_1" xmlns="http://www.w3.org/2000/svg" xmlns:xlink="http://www.w3.org/1999/xlink" x="0px" y="0px"
	 viewBox="0 0 300 254.2" style="enable-background:new 0 0 300 254.2;" xml:space="preserve">
<style type="text/css">
	.st0{fill:#42AA19;}
	.st1{fill:#BD202E;}
	.st2{fill:#F05A29;}
	.st3{fill:#F7EA31;}
	.st4{fill:#016938;}
	.st5{fill:#A0AE39;}
	.st6{fill:#ECD01B;}
	.st7{fill:#FFF4B7;}
	.st8{fill:#FFFFFF;}
	.st9{fill:#E199C1;}
	.st10{fill:#492F8D;}
	.st11{fill:#C82127;}
</style>
<path class="st0" d="M225,0H75L0,127.1l75,127.1h150l75-127.1L225,0z M101.5,157.3l-15.4,4.2l-4.8-13.6l23.3-44.3l5.2,14.9l14.1-3.8
	L101.5,157.3z M123.8,108.9l-10.4,2.8l-3.6-10.2l-3.2-1.7l33.3-63.3l1,0.5h21.8v53.1h-4.3l-7.9,7.3l-7.9-7.3h-2.1v-6.9l-14.2,26.9
	L123.8,108.9z M162.7,208l-10.4,9.7h-1.4l-10.4-9.7v-51.5l11.9,11.1l10.3-9.6V208z M162.7,139.1v13.5h-2.4l-7.9,7.3l-7.9-7.3h-4
	V95.8l10.1,9.3l12.2-11.3v3.8l28.1,44l-2.6,1.7l-2.7,10.5l-10.6-1.9l-2.8,1.8L162.7,139.1z M215,199.8l-15.4-2.8l-25.1-39.4l15,2.7
	l3.8-14.6l25.4,39.9L215,199.8z"/>
</svg>
