<?xml version="1.0" encoding="utf-8"?>
<!-- Generator: Adobe Illustrator 19.1.0, SVG Export Plug-In . SVG Version: 6.00 Build 0)  -->
<svg version="1.1" id="Layer_1" xmlns="http://www.w3.org/2000/svg" xmlns:xlink="http://www.w3.org/1999/xlink" x="0px" y="0px"
	 viewBox="0 0 300 254.2" style="enable-background:new 0 0 300 254.2;" xml:space="preserve">
<style type="text/css">
	.st0{fill:#42AA19;}
	.st1{fill:#BD202E;}
	.st2{fill:#F05A29;}
	.st3{fill:#F7EA31;}
	.st4{fill:#016938;}
	.st5{fill:#A0AE39;}
	.st6{fill:#ECD01B;}
	.st7{fill:#FFF4B7;}
	.st8{fill:#FFFFFF;}
	.st9{fill:#E199C1;}
	.st10{fill:#492F8D;}
	.st11{fill:#C82127;}
</style>
<path class="st0" d="M225,0H75L0,127.1l75,127.1h150l75-127.1L225,0z M150,229.4C150,229.4,150,229.4,150,229.4
	c-17,0-30.8-39.9-30.8-77.2c0-1.7,0.1-3.3,0.1-4.9c-0.2-3.6-0.3-7.3-0.3-10.9c0-36.2,23.4-67.2,31-76.4c7.7,9.2,31,40.2,31,76.4
	c0,3.7-0.1,7.3-0.3,11c0.1,1.6,0.1,3.2,0.1,4.9C180.8,189.5,167,229.4,150,229.4c22.5,0,37.5-48.1,37.5-93c0-45.6-33.7-82-35.2-83.5
	l-2.4-2.5l-2.4,2.5c-1.4,1.5-35.2,37.9-35.2,83.5C112.5,181.3,127.5,229.4,150,229.4c-23,0-54.6-44-54.6-91.9
	c0-44.2,12.6-80.6,45.9-86V24.8h17.4v26.8c33.3,5.3,45.9,41.7,45.9,86C204.6,185.4,171.2,229.4,150,229.4z"/>
</svg>
