<?xml version="1.0" encoding="utf-8"?>
<!-- Generator: Adobe Illustrator 19.1.0, SVG Export Plug-In . SVG Version: 6.00 Build 0)  -->
<svg version="1.1" id="Layer_1" xmlns="http://www.w3.org/2000/svg" xmlns:xlink="http://www.w3.org/1999/xlink" x="0px" y="0px"
	 viewBox="0 0 300 254.2" style="enable-background:new 0 0 300 254.2;" xml:space="preserve">
<style type="text/css">
	.st0{fill:#42AA19;}
	.st1{fill:#BD202E;}
	.st2{fill:#F05A29;}
	.st3{fill:#F7EA31;}
	.st4{fill:#016938;}
	.st5{fill:#A0AE39;}
	.st6{fill:#ECD01B;}
	.st7{fill:#FFF4B7;}
	.st8{fill:#FFFFFF;}
	.st9{fill:#E199C1;}
	.st10{fill:#492F8D;}
	.st11{fill:#C82127;}
</style>
<g>
	<polygon class="st0" points="225,0 75,0 0,127.1 75,254.2 225,254.2 300,127.1 	"/>
	<polygon class="st2" points="192.5,87.8 180.4,99.9 174.8,105.5 174.8,57.5 150.6,33.4 126.4,57.5 126.4,106.8 107.5,87.8 
		73.3,87.8 73.3,122 115.8,164.5 115.6,164.7 107.9,172.4 144,172.4 144,220.8 156,220.8 156,172.4 192.1,172.4 184.4,164.7 
		184.2,164.5 214.7,134.1 226.7,122 226.7,87.8 	"/>
</g>
</svg>
