<?xml version="1.0" encoding="utf-8"?>
<!-- Generator: Adobe Illustrator 19.1.0, SVG Export Plug-In . SVG Version: 6.00 Build 0)  -->
<svg version="1.1" id="Layer_1" xmlns="http://www.w3.org/2000/svg" xmlns:xlink="http://www.w3.org/1999/xlink" x="0px" y="0px"
	 viewBox="0 0 300 254.2" style="enable-background:new 0 0 300 254.2;" xml:space="preserve">
<style type="text/css">
	.st0{fill:#42AA19;}
	.st1{fill:#BD202E;}
	.st2{fill:#F05A29;}
	.st3{fill:#F7EA31;}
	.st4{fill:#016938;}
	.st5{fill:#A0AE39;}
	.st6{fill:#ECD01B;}
	.st7{fill:#FFF4B7;}
	.st8{fill:#FFFFFF;}
	.st9{fill:#E199C1;}
	.st10{fill:#492F8D;}
	.st11{fill:#C82127;}
</style>
<g>
	<polygon class="st0" points="225,0 75,0 0,127.1 75,254.2 225,254.2 300,127.1 	"/>
	<g>
		<path class="st10" d="M149,42.8c0,0-4.3,41.6,6.1,70.2c0,0,31.2-32.2,54.6-46.8C232.4,52,149.8,24.6,149,42.8z"/>
		<path class="st10" d="M72.1,99.9c0,0,32.3,1,68.7,15.9c0,0-9.4-46.8-27.6-66.4S55,93.5,72.1,99.9z"/>
		<path class="st10" d="M102.6,190.7c0,0,11.7-37.8,36.4-60.4c0,0-47.4-5.5-71.7,5.8C43,147.4,91.2,204.9,102.6,190.7z"/>
		<path class="st10" d="M198.4,189.7c0,0-26.9-41.2-46.2-53.3c0,0-11.5,34.6-16.7,70C131.7,233,208.4,204.9,198.4,189.7z"/>
		<path class="st10" d="M227.1,98.3c0,0-40.9,8.7-64.9,27.5c0,0,23.2,3.2,61.4,37.5C243.5,181.1,244.7,93.5,227.1,98.3z"/>
	</g>
</g>
</svg>
