<?xml version="1.0" encoding="utf-8"?>
<!-- Generator: Adobe Illustrator 19.1.0, SVG Export Plug-In . SVG Version: 6.00 Build 0)  -->
<svg version="1.1" id="Layer_1" xmlns="http://www.w3.org/2000/svg" xmlns:xlink="http://www.w3.org/1999/xlink" x="0px" y="0px"
	 viewBox="0 0 300 254.2" style="enable-background:new 0 0 300 254.2;" xml:space="preserve">
<style type="text/css">
	.st0{fill:#42AA19;}
	.st1{fill:#BD202E;}
	.st2{fill:#F05A29;}
	.st3{fill:#F7EA31;}
	.st4{fill:#016938;}
	.st5{fill:#A0AE39;}
	.st6{fill:#ECD01B;}
	.st7{fill:#FFF4B7;}
	.st8{fill:#FFFFFF;}
	.st9{fill:#E199C1;}
	.st10{fill:#492F8D;}
	.st11{fill:#C82127;}
</style>
<path class="st0" d="M225,0H75L0,127.1l75,127.1h150l75-127.1L225,0z M142.1,45.6c1.8-1.8,4.7-1.8,6.4,0C161,58.1,154.6,80,154.4,81
	c-0.6,2-9.4-0.2-8.7-2.6c0.1-0.2,5.1-17.7-3.6-26.4C140.3,50.2,140.3,47.3,142.1,45.6z M177.2,202.4c-4.9,6.5-8.1,7.5-18.5,7.5
	c-4.3,0-7.2-1.2-9.1-2.5c-2.3-1.6-5.3-1.8-7.7-0.3c-5.7,3.6-13.1,2.8-13.1,2.8s-5.3,1.4-14.6-11.4c-10.9-15-30.9-52.7-29.9-80
	s18.9-41,34.1-41S141.9,86,150,86c8.1,0,17.7-3.6,28.1-3.6s38.7,2,37.7,40.6S182,195.9,177.2,202.4z"/>
</svg>
