<?xml version="1.0" encoding="utf-8"?>
<!-- Generator: Adobe Illustrator 19.1.0, SVG Export Plug-In . SVG Version: 6.00 Build 0)  -->
<svg version="1.1" id="Layer_1" xmlns="http://www.w3.org/2000/svg" xmlns:xlink="http://www.w3.org/1999/xlink" x="0px" y="0px"
	 viewBox="0 0 300 254.2" style="enable-background:new 0 0 300 254.2;" xml:space="preserve">
<style type="text/css">
	.st0{fill:#42AA19;}
	.st1{fill:#BD202E;}
	.st2{fill:#F05A29;}
	.st3{fill:#F7EA31;}
	.st4{fill:#016938;}
	.st5{fill:#A0AE39;}
	.st6{fill:#ECD01B;}
	.st7{fill:#FFF4B7;}
	.st8{fill:#FFFFFF;}
	.st9{fill:#E199C1;}
	.st10{fill:#492F8D;}
	.st11{fill:#C82127;}
</style>
<path class="st0" d="M225,0H75L0,127.1l75,127.1h150l75-127.1L225,0z M197.8,69.9L179.7,88h-4.6l-19.6-19.6v-4.6l23.2-23.2
	C188.7,47.7,194.5,58.4,197.8,69.9z M146.4,116.7l-19.6-19.6v-4.6L146.4,73h4.6l19.7,19.7v4.4L151,116.7H146.4z M170.2,149.7v5.4
	l-19.3,19.3h-4.3l-19.7-19.7v-4.6l19.6-19.6h4.6L170.2,149.7z M149.8,32.4c9.3,0,16.9,1.8,23.2,4.9l-22,22h-4.6l-19.6-19.6
	C133.5,34.9,141.3,32.4,149.8,32.4z M121.7,43.7l20.1,20.1v4.6L122.2,88h-4.6L103.7,74C107.8,61.3,113.9,50.9,121.7,43.7z
	 M101.7,81.2L113,92.6v4.6l-15,15C98.2,100.9,99.5,90.6,101.7,81.2z M98.2,121.2l19.4-19.4h4.6l19.6,19.6v4.6l-19.6,19.6h-4.6
	l-19.1-19.1C98.4,124.6,98.3,122.9,98.2,121.2z M99.2,136.3l13.8,13.8v4.6l-9.8,9.8C101.4,155.5,100.1,146,99.2,136.3z M105,171.9
	l12.6-12.6h4.6l19.6,19.6v4.6l-22.1,22.1C113.2,196.9,108.4,185.3,105,171.9z M149.8,221.8c-10.5,0-19-4.2-25.9-11.3l22.4-22.4h4.9
	l21,21C165.9,216.9,158.5,221.8,149.8,221.8z M176,203.9l-20.4-20.4v-4.6l19.6-19.6h4.6l11,11C187,182.5,182.1,194.5,176,203.9z
	 M192.9,163.2l-8.9-8.9v-3.8l15-15C197.6,143.5,195.6,153.2,192.9,163.2z M200.7,124.6l-20.9,20.9h-4.6l-19.6-19.6v-4.6l19.6-19.6
	h4.6l21.1,21.1C200.8,123.4,200.7,124,200.7,124.6z M201.6,114.4l-17.1-17.1v-4.8l15.2-15.2C202.5,91.6,202.1,105.9,201.6,114.4z"/>
</svg>
