<?xml version="1.0" encoding="utf-8"?>
<!-- Generator: Adobe Illustrator 19.1.0, SVG Export Plug-In . SVG Version: 6.00 Build 0)  -->
<svg version="1.1" id="Layer_1" xmlns="http://www.w3.org/2000/svg" xmlns:xlink="http://www.w3.org/1999/xlink" x="0px" y="0px"
	 viewBox="0 0 300 254.2" style="enable-background:new 0 0 300 254.2;" xml:space="preserve">
<style type="text/css">
	.st0{fill:#42AA19;}
	.st1{fill:#BD202E;}
	.st2{fill:#F05A29;}
	.st3{fill:#F7EA31;}
	.st4{fill:#016938;}
	.st5{fill:#A0AE39;}
	.st6{fill:#ECD01B;}
	.st7{fill:#FFF4B7;}
	.st8{fill:#FFFFFF;}
	.st9{fill:#E199C1;}
	.st10{fill:#492F8D;}
	.st11{fill:#C82127;}
</style>
<path class="st0" d="M225,0H75L0,127.1l75,127.1h150l75-127.1L225,0z M145.8,10.2h8.5v100.5h-8.5V10.2z M211.7,196.6
	c0,0-6.2,2.2-12.4,4.5c-0.9,2-1.9,3.9-2.9,5.8l8.9,5.1c0,0-6.6,0.6-13.2,1.2c-1.3,1.7-2.7,3.3-4.2,4.8l7.2,7.2c0,0-6.5-1.1-13-2.3
	c-1.7,1.3-3.5,2.5-5.3,3.5l5.1,8.9c0,0-6-2.8-12-5.6c-2,0.8-4,1.5-6.1,2l2.7,9.9c0,0-5.1-4.2-10.1-8.5c-2.1,0.3-4.2,0.4-6.4,0.4V244
	c0,0-3.8-5.4-7.6-10.8c-2.1-0.3-4.2-0.7-6.3-1.3l-2.7,9.9l-4.5-12.4c-2-0.9-3.9-1.9-5.8-2.9l-5.1,8.9l-1.2-13.2
	c-1.7-1.3-3.3-2.7-4.8-4.2l-7.2,7.2l2.3-13c-1.3-1.7-2.5-3.5-3.5-5.3l-8.9,5.1l5.6-12c-0.8-2-1.5-4-2-6.1l-9.9,2.7l8.5-10.1
	c-0.3-2.1-0.4-4.2-0.4-6.4H86.1l10.8-7.6c0.3-2.1,0.7-4.2,1.3-6.3l-9.9-2.7l12.4-4.5c0.9-2,1.9-3.9,2.9-5.8l-8.9-5.1l13.2-1.2
	c1.3-1.7,2.7-3.3,4.2-4.8l-7.2-7.2l13,2.3c1.7-1.3,3.5-2.5,5.3-3.5l-5.1-8.9l12,5.6c2-0.8,4-1.5,6.1-2l-2.7-9.9l10.1,8.5
	c2.1-0.3,4.2-0.4,6.4-0.4v-10.2l7.6,10.8c2.1,0.3,4.2,0.7,6.3,1.3l2.7-9.9c0,0,2.2,6.2,4.5,12.4c2,0.9,3.9,1.9,5.8,2.9l5.1-8.9
	c0,0,0.6,6.6,1.2,13.2c1.7,1.3,3.3,2.7,4.8,4.2l7.2-7.2c0,0-1.1,6.5-2.3,13c1.3,1.7,2.5,3.5,3.5,5.3l8.9-5.1c0,0-2.8,6-5.6,12
	c0.8,2,1.5,4,2,6.1l9.9-2.7c0,0-4.2,5.1-8.5,10.1c0.3,2.1,0.4,4.2,0.4,6.4h10.2c0,0-5.4,3.8-10.8,7.6c-0.3,2.1-0.7,4.2-1.3,6.3
	L211.7,196.6z"/>
</svg>
