<?xml version="1.0" encoding="utf-8"?>
<!-- Generator: Adobe Illustrator 19.1.0, SVG Export Plug-In . SVG Version: 6.00 Build 0)  -->
<svg version="1.1" id="Layer_1" xmlns="http://www.w3.org/2000/svg" xmlns:xlink="http://www.w3.org/1999/xlink" x="0px" y="0px"
	 viewBox="0 0 300 254.2" style="enable-background:new 0 0 300 254.2;" xml:space="preserve">
<style type="text/css">
	.st0{fill:#42AA19;}
	.st1{fill:#BD202E;}
	.st2{fill:#F05A29;}
	.st3{fill:#F7EA31;}
	.st4{fill:#016938;}
	.st5{fill:#A0AE39;}
	.st6{fill:#ECD01B;}
	.st7{fill:#FFF4B7;}
	.st8{fill:#FFFFFF;}
	.st9{fill:#E199C1;}
	.st10{fill:#492F8D;}
	.st11{fill:#C82127;}
</style>
<path class="st0" d="M225,0H75L0,127.1l75,127.1h150l75-127.1L225,0z M206.6,84.2c-0.6,8.6-10.5,18.1-22.3,27.7
	c-11.8,9.5,1,10.2,10.8,10.2c9.9,0,6.7,8.3,7,17.5c0.3,9.2-19.7,16.2-31.5,21.9c-11.8,5.7-17.2,16.8-17.2,16.8v44.8
	c0,0,0,2.5-2.2,2.5h-2.5c-2.2,0-2.2-2.5-2.2-2.5v-44.8c0,0-5.4-11.1-17.2-16.8c-11.8-5.7-31.8-12.7-31.5-21.9
	c0.3-9.2-2.9-17.5,7-17.5c9.9,0,22.6-0.6,10.8-10.2c-11.8-9.5-21.6-19.1-22.3-27.7c-0.6-8.6-2.2-20,6.7-20s9.9,0.3,18.4,8.9
	s12.4,14.9,16.5,12.4c4.1-2.5-7.6-17.2-10.5-22.3c-2.9-5.1-7.3-12.7-7.6-20c-0.3-7.3,1.3-14.6,13.4-14.6h18.4h2.5h18.4
	c12.1,0,13.7,7.3,13.4,14.6c-0.3,7.3-4.8,14.9-7.6,20c-2.9,5.1-14.6,19.7-10.5,22.3c4.1,2.5,7.9-3.8,16.5-12.4
	c8.6-8.6,9.5-8.9,18.4-8.9S207.2,75.6,206.6,84.2z"/>
</svg>
